<svg width="542" height="20" viewBox="0 0 542 20" fill="none" xmlns="http://www.w3.org/2000/svg"><path d="M541.696 12.006c-.3-.392-.8-.587-1.3-.685-1.5-.196-1.7.49-3.699.685-1.2.196-2.8.098-4.4-.196h1.2c1.7-.098 3.1-.49 4.5-1.37a7.172 7.172 0 003.099-3.525c1.1-2.643.1-5.286-1.8-6.363-.9-.587-2.099-.685-2.999-.392-.8.294-1.5.784-1.8 1.665-.2.685-.1 1.272.3 1.566.3.294 1 .587 1.4.392.8-.49 1.8.587 1.5 2.055-.1.686-.6 1.567-1.4 2.35-.9.783-2 1.273-3.1 1.566-1.299.294-3.399 0-4.899.098H13.679c-1.5-.098-3.6.196-4.9-.098C7.58 9.461 6.58 8.971 5.68 8.188c-.8-.685-1.3-1.566-1.4-2.35-.3-1.468.8-2.545 1.5-2.055.4.195 1.1 0 1.4-.392.3-.294.5-.979.3-1.566-.3-.784-.9-1.37-1.8-1.665-1-.293-2.1-.195-3 .392C.882 1.629-.118 4.272.882 6.915a7.17 7.17 0 003.1 3.525c1.4.88 2.9 1.272 4.499 1.37h1.2c-1.6.294-3.2.392-4.4.196-1.9-.294-2.2-.979-3.7-.685-.499.098-.999.293-1.299.685-.3.392-.4.98-.1 1.566.8 1.665 3.3 1.86 5.2 1.665 1.499-.196 3.099-.686 4.599-1.37-1 .782-2.1 1.468-2.9 1.86-1 .39-1.7.587-1.9.684-.7.196-1.6 1.175-1.4 2.252.1.881 1.2 1.664 2.8 1.175.3-.098 1.3-.685 2.4-1.566 1-.881 2-2.154 2.8-3.427.5-.783 1-1.958 1.799-2.839H528.498c.8.881 1.3 2.056 1.8 2.84.8 1.272 1.8 2.544 2.799 3.426 1 .88 2 1.468 2.4 1.566 1.6.49 2.699-.196 2.8-1.175.199-1.077-.7-2.056-1.4-2.252-.2-.097-1-.293-1.9-.685-.9-.391-1.9-1.077-2.899-1.86 1.499.685 3.099 1.175 4.599 1.37 1.899.196 4.399 0 5.199-1.664.2-.587.1-1.174-.2-1.566z" fill="#E3AA03"/></svg>
