<svg width="180" height="180" viewBox="0 0 180 180" fill="none" xmlns="http://www.w3.org/2000/svg"><path d="M179 90c0 49.153-39.847 89-89 89S1 139.153 1 90 40.847 1 90 1s89 39.847 89 89z" stroke="#E3AA03" stroke-width="2"/><mask id="a" maskUnits="userSpaceOnUse" x="20" y="40" width="140" height="100"><path fill="#fff" d="M20 40h140v100H20z"/></mask><path d="M95.594 51.13A15.015 15.015 0 0089.931 50c-2.04 0-3.955.419-5.704 1.13a14.882 14.882 0 00-4.788 3.225c-1.374 1.382-2.498 3.015-3.248 4.858a15.254 15.254 0 00-1.124 5.695c0 2.052.416 3.979 1.124 5.696.75 1.842 1.874 3.475 3.248 4.857.166.168.125.126.125.168l1.04 1.005-1.332.502a100.152 100.152 0 00-4.83 1.885c-1.29.502-2.581 1.089-3.747 1.633-3.54 1.633-5.663 4.272-7.037 7.329-1.457 3.182-2.123 6.91-2.831 10.636a89 89 0 01-.333 1.801c-.125.628-.25 1.256-.375 1.926-1 4.649-1.707 8.795-1.998 12.396-.25 3.518-.125 6.449.5 8.794.707 2.555 1.956 4.397 3.83 5.402 1.957 1.089 4.622 1.34 8.16.754 1-.167 2.957-.879 5.289-1.884 2.498-1.089 5.412-2.513 8.202-3.979 2.457-1.34 4.83-2.722 6.704-4.02 1.624-1.089 2.831-2.052 3.414-2.806.25-.293.416-.628.583-.921.125-.377.208-.754.291-1.089.042-.586.042-1.172-.083-1.759a7.813 7.813 0 00-.666-1.884c-.292-.586-.666-1.089-1.041-1.591a8.303 8.303 0 00-1.374-1.34 5.746 5.746 0 00-1.374-.838c-.416-.209-.874-.335-1.332-.419-.792-.083-1.874.042-3.123.335-1.457.377-3.123.963-4.83 1.675-.916.419-1.915.88-2.956 1.382-1.166.545-2.29 1.089-3.29 1.634l-1.54.795 1.332-12.814c.042-.251-.041-.545-.208-.712-.167-.21-.416-.377-.708-.377-.25-.042-.541.042-.708.21a1.09 1.09 0 00-.374.67l-1.5 14.238-.374.251c-.458.251-.874.502-1.208.67-.416.251-.75.461-.999.628-.25.126-.375.377-.458.628-.042.252 0 .545.125.754.166.251.375.419.625.461.25.042.54.042.749-.126 1.332-.796 3.664-2.178 6.329-3.559a70.392 70.392 0 015.954-2.848c1.499-.628 2.915-1.173 4.122-1.508 1.124-.293 2.082-.46 2.79-.335.291 0 .583.126.874.252.292.167.583.335.874.544.334.293.708.67 1 1.047.333.377.583.796.833 1.214.208.419.333.838.457 1.215.084.419.125.837.042 1.214 0 .21-.041.377-.125.545-.083.167-.166.335-.291.502-.541.712-1.749 1.633-3.29 2.68-1.707 1.089-3.913 2.345-6.204 3.602a143.453 143.453 0 01-7.744 3.811c-2.248 1.005-4.122 1.716-5.121 1.884-2.748.419-4.872.251-6.454-.544-1.666-.796-2.707-2.22-3.248-4.188-.624-2.22-.708-5.025-.416-8.459.291-3.392 1-7.329 1.915-11.768.125-.544.25-1.172.375-1.801.166-.879.25-1.423.375-1.968.624-3.35 1.249-6.7 2.456-9.59 1.25-2.973 3.123-5.444 6.287-6.91 1.416-.67 3.123-1.381 4.747-2.051 2.581-1.047 4.955-1.885 6.12-2.304l.375-.125.333.167c1.041.545 2.124.963 3.29 1.215 1.082.293 2.248.419 3.497.419 1.208 0 2.415-.126 3.54-.42a14.85 14.85 0 003.289-1.256l.375-.167.374.126c.833.293 2.499.879 4.372 1.59 1.874.755 4.039 1.592 5.996 2.472 1.915.88 3.414 1.968 4.663 3.35 1.208 1.34 2.124 2.973 2.832 4.9.791 2.051 1.332 4.48 1.79 7.286.416 2.764.791 5.988 1.166 9.632.375 3.769.666 6.742.958 9.297v.167c.707 6.7.416 3.675.707 8.281 0 .293.125.545.333.712.167.168.458.293.708.251a.884.884 0 00.708-.335c.167-.167.292-.46.25-.712-.25-4.69 0-1.706-.708-8.406v-.126c-.291-2.68-.583-5.779-.958-9.339-.374-3.769-.749-7.077-1.207-9.966-.458-2.848-1.041-5.319-1.832-7.454-.833-2.22-1.874-4.063-3.289-5.612-1.374-1.55-3.123-2.764-5.33-3.769-1.249-.586-2.706-1.172-4.122-1.759-1.457-.544-2.79-1.089-3.914-1.507L99.3 76.55l1.082-1.089c1.374-1.382 2.499-3.015 3.248-4.857a14.925 14.925 0 001.124-5.696c0-2.01-.416-3.936-1.124-5.695-.749-1.843-1.874-3.476-3.248-4.858a14.878 14.878 0 00-4.788-3.224zm15.239 56.284c-.166.209-.25.46-.25.753l1.458 17.746c0 .293.125.544.333.712.208.167.458.251.749.251.25-.042.5-.168.666-.335.167-.209.292-.461.25-.754l-1.415-17.745c-.042-.293-.167-.545-.375-.712a.83.83 0 00-.708-.251.887.887 0 00-.708.335zm-10.326-18.3a1.992 1.992 0 00-.416.418l-.666.712-.667-.712c-.124-.167-.291-.293-.416-.419-.166-.125-.291-.251-.416-.335-1-.754-2.165-1.13-3.706-1.13-.833 0-1.624.167-2.373.418-.75.293-1.416.754-1.999 1.299a6.09 6.09 0 00-1.374 1.884 5.926 5.926 0 00-.458 2.261c0 1.34.333 2.639.916 3.937.625 1.34 1.499 2.68 2.54 3.978 1 1.256 2.165 2.471 3.373 3.727 1.249 1.215 2.581 2.429 3.872 3.685.208.168.458.252.708.252.25 0 .5-.084.666-.252 1.332-1.256 2.665-2.47 3.872-3.685 1.249-1.256 2.415-2.471 3.373-3.727 1.082-1.298 1.957-2.638 2.581-3.978.583-1.298.916-2.597.916-3.937 0-.795-.166-1.55-.458-2.261a6.086 6.086 0 00-1.374-1.884 6.53 6.53 0 00-2.04-1.299 6.994 6.994 0 00-2.332-.419c-.791 0-1.457.084-2.082.294a4.992 4.992 0 00-1.623.837c-.125.084-.292.21-.417.335zm.666 2.302a4.44 4.44 0 01.958-1.005c.333-.25.708-.46 1.124-.544.417-.126.833-.168 1.374-.168.542 0 1.083.084 1.582.294.542.167 1 .46 1.374.837.375.335.708.754.917 1.215.208.46.291.963.291 1.465 0 1.131-.291 2.22-.874 3.392-.5 1.09-1.25 2.178-2.124 3.267a42.887 42.887 0 01-2.706 2.973 69.452 69.452 0 01-3.04 2.973l-.624.587-.625-.587a108.118 108.118 0 01-3.081-2.973 55.396 55.396 0 01-2.665-2.973c-.874-1.089-1.624-2.178-2.165-3.267-.541-1.172-.874-2.261-.874-3.392 0-.502.125-1.005.333-1.465.208-.461.5-.88.874-1.215.416-.377.875-.67 1.374-.837.5-.21 1.041-.293 1.624-.293.5 0 .958.041 1.374.167.416.084.791.293 1.124.544.333.252.666.587.958 1.005.291.377.583.838.833 1.382.166.252.374.42.624.503.25.042.5.042.75-.084.083-.042.166-.125.249-.21.084-.041.125-.125.167-.209l.042-.041c.249-.503.541-.964.832-1.34zm-6.37-38.4c1.582.67 2.998 1.59 4.164 2.805a13.148 13.148 0 012.789 4.188c.625 1.507.958 3.182.958 4.9 0 1.758-.333 3.391-.958 4.94a14.148 14.148 0 01-2.79 4.188 12.303 12.303 0 01-4.163 2.764c-1.499.629-3.165 1.005-4.872 1.005-1.748 0-3.414-.376-4.913-1.005a12.303 12.303 0 01-4.163-2.764 14.143 14.143 0 01-2.79-4.187 13.053 13.053 0 01-.958-4.942c0-3.56 1.457-6.784 3.748-9.087 1.165-1.215 2.581-2.136 4.163-2.806a12.694 12.694 0 014.913-.963c1.707 0 3.373.335 4.872.963z" fill="#E3AA03"/>
</svg>
