<svg width="180" height="180" viewBox="0 0 180 180" fill="none" xmlns="http://www.w3.org/2000/svg"><circle cx="90" cy="90" r="89" stroke="#E3AA03" stroke-width="2"/><mask id="a" maskUnits="userSpaceOnUse" x="20" y="40" width="140" height="100"><path fill="#fff" d="M20 40h140v100H20z"/></mask><g mask="url(#a)" fill="#E3AA03"><path fill-rule="evenodd" clip-rule="evenodd" d="M57.954 85.683c-.628.496-1.13 1.157-1.507 1.942a6.13 6.13 0 00-.586 2.395l-.042.785-.796.124c-.795.124-1.548.455-2.218.909-.712.454-1.298 1.074-1.8 1.776-.168.29-.377.62-.503.95a5.287 5.287 0 00-.335 1.074c-.083.372-.167.744-.167 1.115 0 .372 0 .703.084 1.116.125.867.502 1.734 1.088 2.602.586.785 1.424 1.57 2.47 2.23 7.996 4.544 19.885 10.244 26.75 15.118.126.083.252.166.42.248.125.083.292.165.418.248.167.083.335.165.46.248.168.083.335.124.46.206.126.042.252.083.377.083.126 0 .293 0 .42-.083a.737.737 0 00.334-.206c.084-.083.167-.165.21-.289.041-.124.083-.248.083-.372s0-.289-.042-.413c-.084-.124-.125-.207-.21-.33-.125-.083-.208-.166-.334-.207-.126-.083-.293-.124-.419-.207-.083-.041-.209-.123-.376-.165-.084-.082-.21-.124-.377-.248v.042a81.2 81.2 0 00-.377-.248c-8.414-4.874-18.838-9.914-26.75-15.118-.293-.207-.921-.661-1.466-1.322a4.68 4.68 0 01-.92-1.528c-.21-.496-.294-1.074-.21-1.652.042-.537.21-1.074.502-1.653l.042-.041c.419-.66.88-1.115 1.424-1.446a3.948 3.948 0 011.716-.495c.586-.042 1.172.041 1.758.206.586.165 1.173.372 1.759.661.125.083 2.26.95 5.107 2.107 5.149 2.106 10.256 4.172 15.405 6.278l.168.372c.21.537.502 1.074.879 1.487.335.413.754.785 1.256 1.033.46.289.963.454 1.507.578a6.01 6.01 0 001.716 0l2.219-.289c3.558-.496 7.117-.95 10.675-1.405.126-.041.251-.082.335-.124a.963.963 0 00.293-.289.89.89 0 00.21-.33c0-.124.041-.248 0-.413a.467.467 0 00-.126-.331.581.581 0 00-.251-.289c-.126-.082-.21-.165-.377-.206-.126 0-.251-.042-.377 0l-.335.041c-.963.124-4.102.537-7.577.991-1.842.248-3.684.496-4.94.661-.377.041-.712.083-.963.041a4.402 4.402 0 01-.795-.206 2.106 2.106 0 01-.586-.413c-.168-.124-.293-.289-.419-.413-.084-.124-.125-.248-.21-.331a1.455 1.455 0 01-.167-.371c-.083-.124-.125-.248-.167-.372l-.126-.372v-.041c0-.041-.041-.289-.041-.661 0-.372 0-.868.167-1.363.293-.992.712-1.57 1.674-2.065.838-.414 2.094-.744 4.02-1.28h.041c.67-.166 1.424-.373 2.638-.744 2.344-.661 4.646-1.24 6.907-1.653 2.26-.413 4.479-.702 6.74-.702 2.219 0 4.479.248 6.74.826 2.26.579 4.521 1.487 6.865 2.85 1.047.537 2.428 1.405 3.935 2.355 1.256.826 2.638 1.735 3.935 2.643a61.407 61.407 0 012.805 2.066c.545.454 1.047.867 1.507 1.239l.419-.455a21.337 21.337 0 00-1.591-1.9 25.846 25.846 0 00-2.679-2.52c-1.172-.99-2.428-1.94-3.6-2.808-1.382-.95-2.679-1.776-3.684-2.354-11.345-6.444-20.932-3.718-32.444-.496-.293.082-1.8.578-1.968.578a7.535 7.535 0 00-1.548.62c-.46.247-.88.578-1.214.908-.377.33-.67.744-.921 1.157-.252.413-.46.909-.587 1.363l-.292 1.074-1.759-.702-.167-.33c-.084-.125-.126-.248-.21-.372-.041-.083-.125-.207-.209-.33a1.255 1.255 0 01-.21-.29c-.083-.083-.167-.207-.25-.29l-9.88-11.276a6.828 6.828 0 00-1.968-1.528c-.795-.372-1.59-.537-2.428-.578-.376 0-.795 0-1.172.082-.418.042-.795.166-1.172.29-.377.123-.753.289-1.13.495-.335.207-.67.413-.963.702zM115.264 121l.838-.991a20.767 20.767 0 00-2.973-3.057 13.444 13.444 0 00-3.642-2.107c-1.298-.454-2.637-.743-4.102-.743-1.424-.041-2.931.165-4.522.619l-9.251 2.561a.918.918 0 00-.335.207c-.126.083-.21.165-.251.289a.661.661 0 00-.126.372c-.042.124 0 .248.042.372 0 .124.084.247.167.371.084.083.168.166.293.248l.377.124c.126 0 .251 0 .377-.041l9.294-2.602a17.8 17.8 0 012.846-.496c1.005-.041 1.926 0 2.847.165.879.124 1.758.413 2.595.785.796.33 1.549.826 2.219 1.363.67.62 1.465 1.198 2.219 1.776.251.165.46.331.795.578l.293.207zM65.28 87.542l8.875 10.12-16.243-6.65-.042-.62c0-.454.042-.908.168-1.322.125-.454.335-.867.586-1.197.25-.33.544-.62.879-.868.293-.248.67-.454 1.046-.62a5.746 5.746 0 011.215-.247 4.038 4.038 0 011.213.041c.42.083.838.248 1.256.496.377.206.712.495 1.047.867z"/><path d="M79.723 92.954a.96.96 0 00-.293-.703 107.661 107.661 0 01-5.275-5.576c-1.632-1.859-3.056-3.718-4.27-5.576-1.172-1.818-2.135-3.635-2.805-5.411-.67-1.818-1.046-3.635-1.046-5.412 0-1.239.293-2.436.795-3.552.503-1.156 1.256-2.148 2.22-3.015.92-.867 2.05-1.57 3.348-2.065a11.087 11.087 0 013.935-.703c1.256 0 2.386.124 3.391.413a8.52 8.52 0 012.68 1.322c.837.62 1.59 1.363 2.302 2.313.67.91 1.34 1.942 2.01 3.18.125.249.334.373.585.455.252.083.503.042.754-.082.084-.042.167-.083.21-.166.083-.04.125-.124.209-.206v-.041c.627-1.198 1.297-2.272 2.009-3.18.712-.91 1.423-1.653 2.26-2.273a8.52 8.52 0 012.68-1.322c1.004-.289 2.135-.413 3.433-.413 1.381 0 2.721.248 3.935.703a11.073 11.073 0 013.349 2.065c.921.867 1.674 1.859 2.176 3.015.503 1.115.796 2.313.796 3.552 0 1.529-.084 2.892-.335 4.131-.209 1.24-.544 2.396-1.088 3.552-.545 1.157-1.298 2.313-2.261 3.594-.963 1.28-2.177 2.644-3.642 4.213a.962.962 0 00-.293.702c0 .248.125.496.335.661.209.207.46.29.711.29.252-.042.503-.124.67-.331 1.591-1.652 2.847-3.098 3.893-4.502 1.005-1.322 1.801-2.561 2.387-3.842.586-1.28 1.004-2.52 1.256-3.882.251-1.405.334-2.892.334-4.585 0-1.529-.334-3.016-.921-4.338-.627-1.363-1.548-2.602-2.679-3.676a12.516 12.516 0 00-3.977-2.437A13.233 13.233 0 0098.854 59c-1.549 0-2.888.165-4.102.537a9.928 9.928 0 00-3.182 1.57 11.327 11.327 0 00-1.8 1.652c-.586.62-1.13 1.322-1.632 2.106l-.545.827-.586-.827a14.173 14.173 0 00-1.632-2.106 11.327 11.327 0 00-1.8-1.652 9.926 9.926 0 00-3.182-1.57c-1.214-.372-2.554-.537-4.06-.537-1.675 0-3.224.29-4.69.826-1.465.578-2.846 1.404-3.976 2.437-1.13 1.074-2.052 2.313-2.68 3.676a10.748 10.748 0 00-.92 4.338c0 1.982.376 3.965 1.088 5.906.712 1.983 1.758 3.966 3.056 5.948a52.453 52.453 0 004.395 5.742c1.675 1.9 3.517 3.841 5.443 5.741.209.207.46.29.711.29.251 0 .503-.083.67-.29.21-.165.293-.413.293-.66z"/></g>
</svg>
