<svg width="136" height="143" viewBox="0 0 136 143" fill="none" xmlns="http://www.w3.org/2000/svg"><path d="M40.783 137.337c-5.258-4.737-16.887-15.915-21.34-22.735-3.846-5.89-7.976-26.378-5.57-34.671.497-1.716.672-3.35.925-4.607l8.356-15.665 11.988 6.45 7.399 11.058c6.185 17.05 21.66 58.275 15.722 63.58-5.939 5.305-11.913-1.516-11.913-2.463l-5.567-.947z" fill="#fff"/><path fill-rule="evenodd" clip-rule="evenodd" d="M79.885 136.273c-3.862-2.166-7.537-6.337-10.773-9.727-3.237 2.968-12.465 5.535-17.393 4.272-4.928-1.263-4.176.18-6.326-1.143.417 3.53 2.4 7.581 9.458 6.919 11.588-1.083 21.005-1.183 28.835 1.644-1.337-.561-2.61-1.203-3.8-1.965zM111.223 53.625zM90.051 73.32c-4.426 4.232-8.999 7.32-13.947 9.686-5.116 2.467-10.169 3.45-16.87 5.897-2.381.862-4.093 1.825-5.242 2.667l.147.04a7.596 7.596 0 00-1.232 1.865c-2.903-1.324-5.867-2.146-8.707-2.025-5.68.22-13.175 4.532-13.175 15.201 0 .862.063 1.725.188 2.547-2.652-3.51-5.324-8.323-4.698-12.855l-.188.18c-.773 3.029-.605 6.458-.48 9.466.313 6.478 2.004 11.532 8.56 11.672h.773c-.104-.1-.188-.2-.272-.301-.083-.08-.146-.16-.23-.26.147.04.293.1.46.14.397.12.794.241 1.211.341.021-.02.021-.02.042-.02 2.735-.301 4.03-1.284 5.011-2.527.605-.762 1.086-1.624 1.691-2.467l.564-.722c.063-.06.125-.14.188-.2.898-1.003 2.13-1.906 4.155-2.587.73-.341 1.608-.662 2.63-.923 1.504-.381 3.32-.642 5.534-.642.772-.04 1.545.02 2.297.061 2.589.18 4.343-.963 6.451-2.126.334-.221.69-.462 1.044-.682.585-.461 1.17-.903 1.733-1.344l.167.141c.627-.381 1.274-.763 1.921-1.144 4.928-2.807 10.356-5.214 15.555-7.901.94-.501 1.9-1.003 2.82-1.524 5.386-3.008 10.335-6.478 13.947-11.23.229-.302.459-.603.668-.903 6.285-8.684 8.707-17.609 8.707-27.636.02-5.334-.293-8.543-1.378-13.457-.042.221-.188.522-.23.742-1.274 5.516-3.612 11.03-7.726 17.589-4.008 6.337-7.975 11.29-12.089 15.241z" fill="#F0F0F1"/><path fill-rule="evenodd" clip-rule="evenodd" d="M118.179 30.303s17.058 14.46 17.789 35.377c.898 25.129-16.85 57.236-50.486 53.045-61.637-7.641-51.072-1.063-51.072-1.063l24.617-14.459s7.705 1.925 18.77-4.112c11.088-6.036 47.168-25.349 40.382-68.787z" fill="#F0F0F1"/><path fill-rule="evenodd" clip-rule="evenodd" d="M57.106 92.19c10.544 1.123 21.047-5.274 31.57-14.158 9.375-7.902 19.063-17.669 24.325-27.455 6.535-12.133 4.76-24.206 5.595-27.034 0 0 6.285 8.563 9.521 21.077 4.051 15.623 3.947 36.841-12.256 48.914-1.482 1.083-7.809 5.034-13.738 6.397-11.61 2.688-26.371 3.49-29.378 3.35-7.37-.02-9.27 4.612-14.282 4.271-.751-.04-1.524-.1-2.296-.06-3.696.02-6.327.722-8.164 1.564-7.078 2.367-4.53 7.762-11.65 8.524-8.186.862-10.17-4.533-10.503-11.592-.25-5.515-.543-12.434 4.844-15.743 8.707-5.335 19.668 1.223 26.412 1.945z" fill="#70BF44"/><path fill-rule="evenodd" clip-rule="evenodd" d="M63.624 72.377C76.319 67.564 86.299 51.6 83.23 37.1c-.23.822-.46 1.825-.71 2.647-2.923 9.285-15.68 21.74-29.043 33.491.396 1.043 7.015.321 10.147-.862zM84.646 13.717h.209c2.318-.16 5.115-.22 7.475-.2 2.338 0 4.364.36 6.013.762C93.603 8.543 87.36 3.609 81.535 0c0 0 2.13 5.575 3.111 13.717z" fill="#F0F0F1"/><path fill-rule="evenodd" clip-rule="evenodd" d="M59.232 88.903c6.703-2.446 11.755-3.429 16.87-5.896 4.95-2.366 9.522-5.455 13.948-9.686 4.114-3.95 8.08-8.904 12.09-15.242 15.868-25.209 9.166-44.481-9.814-44.561-19-.1-26.997 4.09-26.997 4.09 27.102 1.465 20.963 45.365-1.545 53.888-9.96 3.77-23.552-.963-32.384 8.202-6.577 6.859-5.867 13.758-5.074 16.826.647-2.527 1.921-4.773 4.364-6.277 7.475-4.572 16.578-.421 23.302 1.324 1.148-.843 2.86-1.805 5.24-2.668z" fill="#FFD335"/><path fill-rule="evenodd" clip-rule="evenodd" d="M52.72 112.286c10.398 0 18.813 4.392 18.813 9.787 0 .441-.522 1.264-.627 1.705-1.252 4.773-8.644 8.062-18.186 8.062-10.377 0-16.933-12.113-16.933-17.508 0-5.415 6.556-2.046 16.933-2.046z" fill="#E4E4E5"/><path fill-rule="evenodd" clip-rule="evenodd" d="M48.482 112.188c7.767 0 14.073 3.891 14.073 8.684 0 4.793-6.306 8.684-14.073 8.684-7.788 0-12.695-10.77-12.695-15.563 0-4.813 4.907-1.805 12.695-1.805z" fill="#DADADC"/><path fill-rule="evenodd" clip-rule="evenodd" d="M118.175 30.301s4.259 3.61 8.602 9.827c-3.382-10.027-8.185-16.585-8.185-16.585-.313 1.083-.25 3.51-.417 6.758zM77.817 99.091c11.087-6.036 47.146-25.369 40.36-68.787-.271 5.294-1.127 12.774-5.178 20.275-.459.882-.981 1.745-1.524 2.627-.042 3.37-.397 6.718-1.107 9.967-3.173 14.66-16.369 26.853-32.55 35.918z" fill="#57BA46"/><path fill-rule="evenodd" clip-rule="evenodd" d="M70.99 105.889c5.658 3.97 12.84 6.337 20.67 6.337 4.218 0 8.269-.702 11.985-1.966.627-.2 1.253-.441 1.858-.681a159.536 159.536 0 0010.816-4.573c6.598-3.088 13.989-7.18 17.455-11.29 1.671-1.986.021 1.624-1.19 5.294-6.347 19.132-19.543 41.232-38.69 41.232-5.178 0-10-1.464-14.01-3.971-6.64-3.73-12.674-12.353-17.058-15.181-.668-.441-1.337-.862-2.046-1.223-3.341-1.845-5.972-2.547-7.956-2.708-7.245-1.464-6.806 6.378-13.508 3.47-4.845-2.126-8.29-7.581-8.29-13.978 0-10.67 7.496-14.981 13.175-15.202 9.834-.421 20.963 10.368 26.789 14.44z" fill="#F1687F"/><path fill-rule="evenodd" clip-rule="evenodd" d="M85.482 118.724c21.172 9.506 40.82-4.693 40.82-4.693 2.798-5.234 4.51-9.706 6.285-15.02 1.211-3.67 2.86-7.28 1.19-5.295-1.629 1.945-4.698 4.231-7.6 6.056 0 0-10.482 20.917-40.695 18.952z" fill="#F05D73"/><path fill-rule="evenodd" clip-rule="evenodd" d="M33.154 88.54c7.412-4.391 13.801-10.007 20.315-15.301-7.788.421-16.035.2-22.07 6.457-6.576 6.86-5.866 13.758-5.073 16.826.647-2.526 1.921-4.773 4.364-6.277.104-.06.188-.12.292-.16.627-.542 1.357-1.043 2.172-1.544zM98.342 14.277c5.595 7.18 9.751 16.184 11.776 25.57 3.027-13.277-1.733-22.883-11.776-25.57zM83.223 37.101c2.547-8.563 2.38-16.886 1.44-23.384-13.508.843-19.334 3.89-19.334 3.89 11.755.643 17.247 9.246 17.894 19.494z" fill="#FCCC1F"/><path fill-rule="evenodd" clip-rule="evenodd" d="M7.58 43.498s3.36-4.753 7.996-2.146c4.614 2.628 11.212-.822 13.3-3.77-2.818 5.996-10.502 6.939-10.502 6.939 1.127.32 2.255 1.023 3.236 2.026 6.452 6.617 8.874 11.872 14.846 21.518 0 0-8.102 2.287-12.298 3.61-4.218 1.304-3.821 6.638-5.784 10.068-1.963 3.449-5.053.902-5.053.902s.981-11.953 1.274-19.012c.208-5.655-1.023-7.28-3.633-8.383C7.266 53.666 3.069 54.73 0 57.577c0 0 .438-4.413 4.364-6.217 1.65-.763 1.962-2.768 3.361-4.232 1.921-2.005 4.657-3.43 4.657-3.43s.417-1.644-4.803-.2z" fill="#A8A9AD"/><path fill-rule="evenodd" clip-rule="evenodd" d="M69.112 126.884s7.956-9.947 12.862-8.483c-6.556-3.309-14.636-3.61-20.963-3.089-6.055.481-10.502 1.685-10.502 1.685.689-.06 1.44-.02 2.317.16 1.984.161 4.615.863 7.956 2.708.354.18.689.381 1.044.581.334.201.668.421 1.002.642 1.628 1.063 4.238 3.67 6.284 5.796z" fill="#F16E89"/><path fill-rule="evenodd" clip-rule="evenodd" d="M51.242 142.41c-7.496-6.638-7.976-18.189-7.976-18.189s-4.823 6.598-11.421 1.364c-2.422-1.926-5.283-5.756-7.433-9.587-3.738-6.598-6.18-13.557-6.18-13.557s-1.608 31.948 33.01 39.969z" fill="#A8A9AD"/><path fill-rule="evenodd" clip-rule="evenodd" d="M87.924 139.582c47.48 14.359 43.325-29.54 43.325-29.54-1.441 1.403-3.111 2.727-4.928 3.95-.042.061-.125.221-.167.281-7.287 13.998-18.123 25.971-32.259 25.971-2.046 0-4.05-.241-5.971-.662z" fill="#F0F0F1"/><path fill-rule="evenodd" clip-rule="evenodd" d="M39.32 120.628c5.889 2.567 6.265-3.189 11.192-3.63 0 0 5.721-1.303 11.755-1.785.334-7.641 6.849-10.709 6.849-10.709-.46-.341-.919-.722-1.42-1.103-1.67 1.304-3.529 2.687-5.533 4.232-8.018 6.116-15.117 10.508-20.984 10.508-2.213 0-4.406-.361-6.494-1.043 1.295 1.545 2.882 2.748 4.636 3.53z" fill="#F16E89"/><path fill-rule="evenodd" clip-rule="evenodd" d="M53.991 91.57c-3.173-.822-7.976-2.747-12.778-3.329-5.992-.722-12.883 1.163-14.637 7.44-1.378 4.954 1.713 9.667 4.636 13.517v.061a17.844 17.844 0 01-.188-2.607c0-10.67 7.495-14.981 13.175-15.202 2.84-.12 5.804.702 8.707 2.026a5.002 5.002 0 011.085-1.906z" fill="#B5D334"/><path fill-rule="evenodd" clip-rule="evenodd" d="M61.636 98.769c-4.97-3.79-8.728-5.294-8.728-5.294-2.902-1.344-5.867-2.146-8.707-2.026-5.679.22-13.175 4.532-13.175 15.201 0 .823.063 1.645.167 2.447 0 .04.021.06.021.1.376 2.648 1.357 5.034 2.777 7.02.209.3.439.601.69.882.145.04.292.1.459.14.104.04.23.081.334.101l.877.24h.062c1.545.381 3.132.562 4.76.562 2.882 0 6.056-1.043 9.501-2.848a54.13 54.13 0 003.863-2.266c.313-.201.647-.421.96-.622 1.42-.942 2.86-1.965 4.343-3.048.063-.04.104-.08.146-.1.71-.522 1.44-1.063 2.172-1.625 2.192-1.684 3.57-2.908 6.18-3.73a9.623 9.623 0 00-.48-.361c-.042-.04-.105-.1-.167-.14-.167-.121-.334-.261-.501-.381-1.67-1.324-3.55-2.808-5.554-4.252z" fill="#F68846"/></svg>
