<svg width="180" height="180" viewBox="0 0 180 180" fill="none" xmlns="http://www.w3.org/2000/svg"><circle cx="90" cy="90" r="89" stroke="#E3AA03" stroke-width="2"/><mask id="a" maskUnits="userSpaceOnUse" x="20" y="40" width="140" height="100"><path fill="#fff" d="M20 40h140v100H20z"/></mask><g mask="url(#a)" fill="#E3AA03"><path fill-rule="evenodd" clip-rule="evenodd" d="M51.46 77.207c-.625 0-1.291.166-1.874.456a5.968 5.968 0 00-1.541 1.202l-.416.54-.584-.332a4.084 4.084 0 00-1.832-.54 5.303 5.303 0 00-1.957.25c-.25.124-.541.207-.791.373-.25.124-.5.29-.708.456-.25.207-.458.414-.666.622-.167.248-.334.456-.5.746a5.011 5.011 0 00-.583 2.156c-.042.788.083 1.617.416 2.57l9.12 22.388v.042c.042.124.083.249.125.331.083.125.125.249.167.374.041.124.125.248.166.373.042.083.125.207.167.331.041.125.125.166.208.249.083.042.166.125.25.125.083.041.208.041.291.041a.765.765 0 00.292-.083.883.883 0 00.208-.166.67.67 0 00.167-.29c0-.083.041-.166 0-.29 0-.083 0-.166-.084-.29a2.003 2.003 0 01-.125-.291c-.083-.124-.125-.248-.166-.331a2.003 2.003 0 01-.125-.291c-.042-.124-.083-.248-.125-.331.375-.125-9.12-21.227-9.12-22.43a6.188 6.188 0 01-.292-1.534c0-.456.042-.953.209-1.41.125-.414.333-.787.624-1.119a3.456 3.456 0 011.25-.829c.583-.207 1.124-.29 1.624-.249.458.083.916.25 1.332.54.375.248.708.58 1 .994.291.373.541.83.75 1.285l2.165 3.815c2.124 3.773 4.29 7.587 6.454 11.36l-.124.331a5.13 5.13 0 00-.167 1.368c0 .415.083.83.25 1.244.166.373.375.705.666 1.037a4.29 4.29 0 001.041.87c2.957 1.7 5.872 3.442 8.829 5.141a.597.597 0 00.291.083c.083.042.167.042.292 0l.25-.124a.502.502 0 00.208-.207c.041-.125.083-.208.083-.291.042-.082 0-.207 0-.29-.042-.083-.083-.207-.125-.29-.083-.041-.125-.124-.25-.166l-.208-.124c-.708-.456-3.04-1.783-5.205-3.068-.916-.539-2.04-1.203-3.373-1.99a2.434 2.434 0 01-.625-.456 1.58 1.58 0 01-.375-.539c-.125-.166-.166-.332-.208-.539-.042-.166-.042-.332-.042-.456 0-.125.042-.208.042-.332 0-.083.041-.207.083-.29 0-.125.042-.207.083-.332.042-.083.042-.166.125-.29v-.042s.125-.207.292-.414c.166-.249.458-.54.791-.788.666-.497 1.25-.622 2.082-.456.75.124 1.666.498 3.123 1.12h.042c.5.248 1.124.497 1.999.829 1.79.746 3.498 1.492 5.08 2.321 1.625.83 3.124 1.742 4.54 2.82 1.374 1.078 2.665 2.321 3.79 3.814 1.123 1.451 2.081 3.151 2.873 5.099.333.83.79 2.032 1.249 3.4a58.9 58.9 0 011.124 3.524c.292.954.542 1.866.75 2.695.125.498.208.995.291 1.451l.458-.083c0-.58 0-1.244-.083-1.907a24.316 24.316 0 00-.416-2.902 61.585 61.585 0 00-.833-3.483 48.58 48.58 0 00-1.125-3.275c-3.872-9.453-11.16-12.438-19.863-15.962l-1.5-.622c-.416-.166-.833-.29-1.249-.331a3.714 3.714 0 00-1.166-.042c-.416.042-.791.124-1.124.29-.417.125-.75.332-1.041.58l-.75.54-.791-1.368.041-.29c.042-.084.042-.208.084-.29 0-.125 0-.208.041-.333v-.29-.29l-.583-11.816a5.35 5.35 0 00-.458-1.907 4.408 4.408 0 00-1.207-1.534c-.25-.207-.5-.373-.75-.54a3.963 3.963 0 00-.874-.372 7.291 7.291 0 00-.917-.207c-.333-.042-.624-.083-.957-.042zm18.114 49.751l.958-.165c0-1.203-.125-2.281-.333-3.317-.291-1.12-.666-2.156-1.25-3.068a9.087 9.087 0 00-2.123-2.446 12.338 12.338 0 00-3.082-1.825l-7.037-2.86c-.084-.042-.167-.042-.292-.042-.083 0-.166 0-.291.042a.861.861 0 00-.25.166c-.042.083-.125.165-.167.248 0 .083-.041.208-.041.291a.77.77 0 00.083.29c0 .083.083.166.125.249.083.041.166.124.25.165l7.037 2.861c.75.29 1.416.663 2.04 1.078.626.456 1.209.912 1.667 1.451.5.581.916 1.161 1.249 1.783.333.622.541 1.285.666 1.948.167.705.333 1.452.542 2.156v.042c.083.331.166.663.25.953zM55.124 81.85l.5 10.821-6.871-12.189.291-.414c.25-.332.5-.58.792-.788.291-.207.624-.373.957-.456.334-.083.625-.124.958-.124.333 0 .666.041.958.124.333.083.625.249.916.415.25.165.5.414.708.663.25.249.416.539.541.912.125.332.209.663.25 1.037zM131.414 77.746c-.624-.331-1.249-.456-1.874-.497-.333 0-.624 0-.958.041a7.31 7.31 0 00-.916.207c-.291.125-.583.25-.874.415-.25.124-.542.29-.75.498a4.823 4.823 0 00-1.207 1.534c-.25.58-.458 1.202-.458 1.907l-.583 11.816v.622c0 .082.041.207.041.29 0 .083.042.207.042.29l.083.29-.791 1.368-.75-.539c-.291-.248-.666-.414-1.041-.58-.333-.124-.708-.249-1.124-.29a3.716 3.716 0 00-1.166.041c-.417.083-.833.166-1.291.373l-1.499.58c-8.704 3.566-15.991 6.51-19.823 16.004-.333.871-.75 1.99-1.124 3.275-.291 1.078-.624 2.239-.833 3.483a23.72 23.72 0 00-.416 2.861c-.083.663-.083 1.326-.083 1.907l.458.083c.083-.456.166-.912.291-1.451.208-.83.458-1.742.708-2.695.375-1.203.791-2.405 1.166-3.524a108.21 108.21 0 011.25-3.4c.79-1.949 1.748-3.648 2.873-5.099a21.928 21.928 0 013.789-3.815c1.375-1.078 2.915-1.99 4.498-2.819a57.79 57.79 0 015.122-2.28c.874-.373 1.499-.622 1.999-.83 1.499-.621 2.415-1.036 3.165-1.16.833-.166 1.416 0 2.082.456.333.248.583.539.791.787.167.208.25.415.292.457.041.124.083.207.124.331.042.083.084.166.084.29.041.125.041.208.083.332v.788c-.042.166-.083.332-.208.539a1.916 1.916 0 01-.375.497 2.42 2.42 0 01-.625.456c-1.624.954-3.331 1.949-4.747 2.778l-4.081 2.405a.494.494 0 00-.208.207l-.125.249a.35.35 0 000 .29c0 .083.042.207.083.29a.508.508 0 00.208.208c.084.083.167.124.25.124.084.041.208.041.292.041.083-.041.208-.041.291-.124 2.915-1.7 5.872-3.441 8.787-5.141a3.841 3.841 0 001.083-.871c.291-.29.499-.663.666-1.036.167-.415.25-.829.25-1.244 0-.456-.042-.912-.208-1.368l-.084-.332c2.166-3.773 4.29-7.545 6.455-11.36a502.242 502.242 0 002.166-3.814c.208-.456.458-.912.749-1.285.292-.373.625-.746 1-.995.416-.249.832-.456 1.332-.498.5-.082 1.041 0 1.583.208h.041c.5.207.875.456 1.166.787.333.332.583.747.708 1.161.167.498.208.954.167 1.41 0 .705-.167 1.285-.25 1.575 0 .25-8.245 20.233-9.12 22.388-.042.125-.083.208-.125.332-.042.083-.083.207-.125.332a2.28 2.28 0 01-.166.29c-.042.124-.125.249-.167.332-.042.083-.042.166-.083.248 0 .125 0 .208.041.332a.884.884 0 00.167.249c.042.083.125.124.208.166.083.083.208.083.292.083.083.041.208 0 .291 0 .083-.042.167-.083.25-.166.083-.042.125-.125.208-.207.042-.166.125-.249.167-.374.041-.124.125-.248.166-.331l.125-.373c.042-.125.125-.249.167-.374.291-.787.625-1.575.958-2.363 2.332-5.721 8.162-20.025 8.162-20.066.333-.912.458-1.783.416-2.57a5.003 5.003 0 00-.583-2.156 10.045 10.045 0 00-.5-.705 3.119 3.119 0 00-.666-.622 2.73 2.73 0 00-.708-.498 6.43 6.43 0 00-.791-.331 4.79 4.79 0 00-1.999-.29c-.625.082-1.249.248-1.791.538l-.583.332-.416-.497c-.458-.54-.999-.954-1.541-1.203zm-20.946 49.088l.957.166c.084-.29.167-.622.25-.954.167-.746.375-1.451.5-2.197.167-.663.375-1.327.708-1.948a8.39 8.39 0 011.249-1.742 8.044 8.044 0 011.666-1.451 8.82 8.82 0 012.041-1.119l6.996-2.861c.125-.041.208-.083.249-.166.084-.083.125-.166.167-.249a.588.588 0 00.083-.29c0-.083-.041-.166-.083-.29-.042-.083-.083-.166-.167-.249a.903.903 0 00-.208-.166c-.125 0-.208-.041-.291-.041-.125 0-.208 0-.292.041l-7.037 2.903a11.121 11.121 0 00-3.082 1.782 10.065 10.065 0 00-2.166 2.446 10.526 10.526 0 00-1.207 3.068 16.92 16.92 0 00-.333 3.317zm14.991-36.443l.417-8.457a3.1 3.1 0 01.208-1.078c.166-.332.333-.664.583-.912.208-.25.458-.457.708-.664.291-.166.583-.29.916-.373.291-.124.625-.166.958-.166.333 0 .624.042.958.125.333.124.666.248.957.497.292.166.542.456.792.746l.291.415-6.871 12.19.083-2.323z"/><path d="M94.103 52.705A9.086 9.086 0 0090.605 52c-1.25 0-2.457.249-3.498.705a9.016 9.016 0 00-2.999 1.99c-.833.83-1.499 1.824-1.999 2.944a9.6 9.6 0 00-.666 3.482c0 .83.084 1.617.292 2.363.208.747.5 1.493.916 2.156l.25.456-.458.249c-1.375.622-3.415 1.907-5.04 4.063-1.082 1.492-1.956 3.4-2.248 5.846v.207l-.083 17.206h1.416c0-4.851-.458-12.604.041-17.123.25-2.322 1.083-4.105 2.124-5.473 1.624-2.156 3.748-3.275 4.83-3.69l.292-.165.333.331a9.016 9.016 0 002.999 1.99c1.04.456 2.248.705 3.498.705 1.207 0 2.332-.249 3.414-.663 1.083-.456 2.083-1.078 2.915-1.866l.209-.249.333.125c1.124.539 3.123 1.617 4.664 3.69.999 1.368 1.791 3.15 2.04 5.43.542 4.313.042 12.397.084 17.124h1.374l-.042-17.206-.041-.249c-.292-2.363-1.125-4.229-2.166-5.721-1.499-2.073-3.456-3.358-4.83-4.063l-.459-.208.292-.456c.416-.704.75-1.492 1-2.321a9.697 9.697 0 00.333-2.488c0-1.244-.25-2.405-.667-3.483-.458-1.119-1.166-2.114-1.999-2.943a8.452 8.452 0 00-2.956-1.99zm-34.939 22.47v12.231h1.374c0-3.4-.333-8.955.042-12.147.166-1.7.791-2.985 1.582-3.939 1.25-1.658 2.915-2.363 3.54-2.612l.25-.083.25.207c.583.54 1.29.954 2.082 1.244.708.29 1.54.456 2.374.456.874 0 1.749-.165 2.54-.497a6.847 6.847 0 002.165-1.451c.583-.622 1.083-1.327 1.416-2.156.333-.746.5-1.617.5-2.53 0-.87-.167-1.74-.5-2.528-.333-.788-.833-1.493-1.416-2.115a6.847 6.847 0 00-2.165-1.45 6.604 6.604 0 00-2.54-.498c-.916 0-1.75.166-2.54.497-.834.332-1.541.83-2.166 1.451a6.518 6.518 0 00-1.416 2.115c-.333.788-.541 1.658-.541 2.529 0 .58.083 1.12.208 1.617.125.539.333 1.036.583 1.534l.25.456-.458.207c-1 .456-2.54 1.41-3.707 3.027-.832 1.078-1.457 2.487-1.665 4.311l-.042.125zm61.257.374l.042 12.106h1.374l-.041-12.23V75.3c-.209-1.658-.75-2.985-1.458-4.063-.958-1.45-2.249-2.363-3.248-2.943l-.458-.25.291-.455c.375-.54.667-1.12.833-1.742a6.147 6.147 0 00.292-1.948c0-.912-.167-1.783-.5-2.53-.333-.828-.833-1.533-1.416-2.155a6.85 6.85 0 00-2.165-1.451c-.792-.29-1.624-.498-2.541-.498-.916 0-1.749.208-2.54.498a6.839 6.839 0 00-2.165 1.45c-.583.623-1.083 1.328-1.416 2.157-.333.746-.5 1.617-.5 2.529 0 .87.167 1.741.5 2.529a6.741 6.741 0 001.416 2.114 6.84 6.84 0 002.165 1.451 6.452 6.452 0 002.54.498c.708 0 1.416-.124 2.041-.332.666-.207 1.291-.539 1.874-.912l.208-.166.292.083c.666.332 1.707.912 2.623 1.949.958.995 1.749 2.404 1.957 4.394v.042zm-47.765-16.46c.667.25 1.208.664 1.708 1.12.5.497.874 1.078 1.124 1.7.292.622.417 1.285.417 1.99 0 .705-.125 1.41-.417 2.031a5.048 5.048 0 01-1.124 1.7c-.5.456-1.041.87-1.708 1.12-.624.248-1.29.414-1.998.414s-1.375-.166-2-.414a4.881 4.881 0 01-1.707-1.12 5.895 5.895 0 01-1.166-1.7 5.504 5.504 0 01-.374-2.031c0-.705.124-1.368.374-1.99a5.895 5.895 0 011.166-1.7 4.881 4.881 0 011.708-1.12c.624-.248 1.29-.414 1.999-.414.707 0 1.374.166 1.998.415zm40.769-.04c.667.29 1.25.663 1.708 1.118a5.921 5.921 0 011.166 1.7 5.5 5.5 0 01.374 2.032c0 .705-.124 1.368-.374 1.99a5.92 5.92 0 01-1.166 1.7 4.368 4.368 0 01-1.708 1.12c-.624.29-1.291.414-1.999.414-.708 0-1.374-.125-1.998-.415a4.368 4.368 0 01-1.708-1.12c-.5-.497-.874-1.077-1.166-1.7a5.285 5.285 0 01-.375-1.99 5.5 5.5 0 01.375-2.03c.292-.623.666-1.203 1.166-1.7.458-.456 1.041-.83 1.708-1.12.624-.249 1.29-.415 1.998-.415s1.375.166 1.999.415zM93.561 53.99c.958.373 1.791.954 2.54 1.658a7.443 7.443 0 011.666 2.53 7.733 7.733 0 010 5.887 7.443 7.443 0 01-1.665 2.529c-.75.705-1.583 1.285-2.54 1.658a7.133 7.133 0 01-2.957.622c-1.083 0-2.082-.207-2.999-.622-.957-.373-1.79-.953-2.498-1.658a8.22 8.22 0 01-1.708-2.53 7.733 7.733 0 010-5.886 8.22 8.22 0 011.708-2.53c.708-.704 1.54-1.285 2.498-1.658.917-.415 1.916-.622 2.999-.622 1.04 0 2.04.207 2.956.622z"/></g>
</svg>
