<svg width="102" height="280" viewBox="0 0 102 280" fill="none" xmlns="http://www.w3.org/2000/svg"><path d="M13.012 14.584c.196.756.56 1.512 1.008 2.212.532.812 1.428 1.54 2.212 1.54.812 0 2.016-.28 3.836-.56.392.7.616 1.54.616 2.772 0 1.484-.084 3.752-.168 5.544-3.276.28-6.44.56-7.7.56-1.092 0-1.932-.504-2.744-1.26l-.364.168c0 .896.084 1.372.308 1.876.364.868 1.988 2.548 3.108 2.548.756 0 1.792-.532 3.136-.896 2.408-.644 6.608-1.148 9.436-1.092 3.864.056 6.636 1.008 7.728 1.008.784 0 1.316-.588 1.316-1.344 0-1.148-2.772-2.772-4.256-2.772-.448 0-.812.364-2.408.532-1.204.084-2.884.224-4.704.392.14-1.792.336-3.556.532-4.732.14-.784.616-1.4.616-1.96 0-.616-.812-1.204-1.848-1.68 3.192-.364 5.656-.476 6.748-.588 1.008-.084 1.4-.672 1.4-1.344 0-.924-2.38-1.96-3.948-1.96-.644 0-.728.868-4.396 1.484-2.156.336-4.536.616-6.048.616-1.148 0-2.128-.532-3.08-1.26l-.336.196zM25.276 54.78c.14.224.392.7.504 1.148.14.588 0 .868-.42 1.26-1.652 1.54-4.928 3.36-8.204 4.844.112-2.436.28-5.012.476-6.3.168-.868.784-1.12.784-1.848 0-.98-2.044-2.576-3.696-2.604-.812 0-1.932.532-2.604.84v.336c1.232.336 2.016.644 2.212 1.288.308.896-.056 9.38.028 13.412.084 4.256.756 5.348 6.888 5.348 3.752 0 6.916-.308 8.372-.812.812-.252 1.372-.672 1.372-1.652 0-1.092-1.12-1.596-3.22-1.596-.56 0-3.192 1.036-7.28 1.036-3.052 0-3.416-.336-3.444-2.66-.028-.784 0-2.016.028-3.416 4.648-1.344 8.372-2.744 10.892-3.892 1.092-.504 1.876-.616 1.876-1.316 0-.7-.7-1.904-1.904-2.772-.756-.532-1.4-.756-2.38-.896l-.28.252zm6.244-.168a1.942 1.942 0 01-1.932-1.96c0-1.064.868-1.932 1.932-1.932 1.092 0 1.96.868 1.96 1.932 0 1.092-.868 1.96-1.96 1.96zm0-5.012a3.06 3.06 0 00-3.052 3.052 3.041 3.041 0 003.052 3.052 3.041 3.041 0 003.052-3.052A3.06 3.06 0 0031.52 49.6zm-.616 47.168c.448-1.064 1.456-1.4 1.456-2.128 0-1.26-2.632-3.276-4.116-3.36-.728-.028-1.764.252-2.436.476l-.084.476c1.764.644 2.296 1.092 2.212 1.736-.42 4.34-5.824 13.44-15.036 18.676l.364.532c8.736-2.912 14.364-9.016 17.64-16.408zm-16.128.392c1.176 1.96 1.596 3.696 2.968 3.696.952 0 1.764-.896 1.764-2.016-.028-2.884-3.696-5.04-7.364-6.076l-.308.42c1.148 1.204 2.016 2.38 2.94 3.976zm10.192 75.912c1.344 1.12 1.988 2.1 2.52 2.884.504.644.84 1.064 1.288 1.064.616 0 1.036-.448 1.036-1.036 0-.532-.196-1.036-.812-1.596-.868-.784-2.184-1.26-3.752-1.68l-.28.364zm-9.072-1.904c1.148.196 2.016.504 2.184 1.428.224 1.26.308 4.788.308 7.112 0 1.68-.028 5.432-.252 7.532-.14 1.232-.392 1.876-.392 2.632 0 2.072.784 3.584 2.24 3.584 1.12 0 1.428-.588 1.428-2.044 0-.392-.056-1.344-.112-2.772a157.335 157.335 0 01-.028-8.96c1.484.7 2.492 1.372 3.36 2.1 2.156 1.988 2.268 3.528 4.06 3.528 1.008 0 1.624-.812 1.624-1.708 0-1.484-.812-2.324-2.044-3.052-1.568-.924-4.172-1.68-6.972-1.988.028-1.624.084-3.136.252-4.228.14-1.036.756-1.316.756-2.128 0-.924-2.492-2.296-3.892-2.296-.84 0-1.764.448-2.548.812l.028.448zm11.62-.364c1.456 1.12 2.044 1.932 2.548 2.576.532.7.868 1.12 1.4 1.12.588 0 .924-.364.924-.952 0-.644-.252-1.204-.98-1.736-.784-.588-2.044-1.064-3.64-1.372l-.252.364zm6.776 46.664c.42 0 .728-.14.812-.448-1.4-1.204-3.668-2.912-3.668-2.912l-2.072 2.548h-6.3c.196-2.268.224-4.648.28-7.084.672-.112.924-.392 1.008-.812l-4.704-.448c0 2.912.028 5.712-.168 8.344H9.092l.224.812h10.108c-.616 6.384-2.8 11.928-10.584 16.632l.252.42c10.164-4.004 12.964-9.716 13.804-16.38.756 5.6 2.856 12.404 9.38 16.38.308-1.904 1.316-2.94 3.024-3.248l.056-.308c-7.84-3.164-11.088-8.316-12.068-13.496h11.004zm-3.836 35.996c-.168.868-.392 1.904-.588 2.604l.252.196c1.232-.504 2.912-1.456 3.892-2.128.56-.028.84-.112 1.064-.336l-3.052-2.912-1.764 1.764h-3.64c1.4-.84 2.856-1.848 3.808-2.576.616 0 .952-.196 1.064-.56l-4.48-1.148a73.572 73.572 0 01-1.54 4.284h-1.876v-3.416c.7-.112.896-.364.924-.7l-4.228-.364v4.48H17.38c1.484-.7 1.568-3.696-3.556-4.284l-.252.168c.868.924 1.764 2.464 1.932 3.836.168.112.336.224.504.28H13.18a7.552 7.552 0 00-.532-1.512l-.392.028c.168 1.428-.756 2.688-1.652 3.192-.896.392-1.568 1.12-1.316 2.184.336 1.092 1.568 1.4 2.52.924 1.064-.532 1.82-1.932 1.54-4.004h17.108zM16.568 266.96h10.864v1.932H16.568v-1.932zm-.784-6.72c1.288 0 2.744-.672 2.744-.924v-.224H25.5v.812h.56c.784 0 1.932-.308 2.436-.56l-1.344 1.428h-10.36l-1.344-.532h.336zm9.716-4.34v2.408h-6.972V255.9H25.5zm1.932 8.344v1.932H16.568v-1.932h10.864zm0-.784H16.568v-1.904h10.864v1.904zm0 6.216v.644h.532c1.036 0 2.66-.588 2.688-.784v-7.532c.504-.084.84-.336 1.008-.532l-2.968-2.24a.06.06 0 00.056-.056v-2.884c.448-.084.784-.308.924-.476l-2.996-2.184-1.4 1.484h-6.608l-3.304-1.288v6.384l-1.96-.784v11.48h.476c1.288 0 2.688-.7 2.688-1.008v-.224h1.596c-1.932 1.652-5.544 3.5-8.96 4.452l.112.364c4.116-.224 8.484-1.232 11.032-2.576.84.196 1.344.084 1.596-.196l-2.996-2.044h8.484zm-4.34 1.232c3.528.784 6.02 2.128 7.364 3.136 3.108 2.128 8.96-3.724-7.28-3.5l-.084.364zM19.26 128.38c.672-.084 1.484-.168 2.128.084 1.372.504 3.192 2.24 3.192 3.332 0 1.064-.672 1.484-.868 3.5-.252 2.156-.644 8.428-.644 10.556 0 1.96.084 2.94.084 4.06 0 1.176-.392 1.848-1.204 1.848-1.204 0-2.072-1.456-2.072-3.136 0-.672.224-1.932.392-3.808.14-1.708.7-10.164.7-13.16 0-1.484-.756-1.96-1.876-2.8l.168-.476zM78.508 16.908c.112 3.416-1.372 6.356-2.912 7.448-.784.7-1.176 1.68-.588 2.576.7 1.036 2.268 1.036 3.276-.112 1.512-1.568 2.66-4.928.588-9.94l-.364.028zm4.2-8.176l-.112.336c3.5 1.904 5.628 4.564 6.384 6.244 3.5 2.044 6.496-5.824-6.272-6.58zm11.844 7.896l-.224.224c2.548 2.744 3.192 6.72 3.136 9.296 2.8 3.752 7.98-4.676-2.912-9.52zm-12.348-2.1v15.82c0 2.604 1.008 3.192 4.172 3.192h3.416c5.544 0 6.944-.7 6.944-2.24 0-.644-.28-1.036-1.288-1.428l-.084-4.508h-.308c-.616 2.1-1.12 3.724-1.484 4.312-.224.336-.448.448-.896.476-.476.056-1.428.056-2.576.056h-3.164c-1.148 0-1.456-.196-1.456-.84V15.704c.672-.112.924-.392.98-.756l-4.256-.42zm12.18 36.528v3.276h-7.392v-3.276h7.392zm-7.392 7.532v-3.5h7.392v3.5h-7.392zm0 .812h7.392v1.708h.56c1.596 0 2.604-.588 2.604-.728v-9.1c.616-.112.924-.28 1.092-.532l-2.884-2.212-1.484 1.708h-7l-3.304-1.26v12.432h.532c1.54 0 2.492-.56 2.492-.784V59.4zM76.884 48.592c.896 1.092 1.96 2.8 2.268 4.312 2.828 1.96 5.376-3.36-2.044-4.508l-.224.196zm-2.1 6.216c.952 1.008 1.876 2.632 2.072 4.06 2.632 2.016 5.236-3.22-1.82-4.228l-.252.168zm7.98-1.68c-5.208 11.2-5.208 11.2-5.824 12.236-.308.588-.42.588-.84.588h-1.26v.56c.588.056 1.064.168 1.428.42.672.476.812 3.024.308 6.02.196 1.036.784 1.484 1.372 1.484 1.288 0 2.156-.896 2.212-2.296.084-2.492-.98-3.584-1.036-5.068 0-.7.196-1.68.448-2.604.392-1.484 2.492-7.784 3.64-11.228l-.448-.112zm2.772 10.668h1.736v8.792h-1.736v-8.792zm5.908 8.792h-1.736v-8.792h1.736v8.792zm4.172-8.792v8.792h-1.764v-8.792h1.764zm2.996 8.68v-8.372c.728-.112 1.064-.28 1.288-.588l-3.248-2.212-1.344 1.68h-9.492l-3.164-1.26v10.864h-2.408l.224.812h20.58c.392 0 .644-.14.728-.448-.7-.952-2.072-2.408-2.072-2.408l-1.092 1.932zm-11.116 35.38c0 2.548-1.372 3.192-4.116 3.192-1.484 0-2.548-.616-2.548-1.54 0-1.008 1.596-1.932 3.892-1.932.98 0 1.904.084 2.772.252v.028zm-2.884-16.94c.896.196 1.484.364 2.072.616.476.224.672.448.672 1.008 0 .392-.028 1.204-.028 2.24-1.344.168-2.8.28-4.228.28-2.324 0-3.416-.616-4.844-1.596l-.336.252c1.344 2.968 3.276 3.696 6.02 3.696 1.148 0 2.268-.056 3.332-.14v3.08a31.43 31.43 0 01-3.304.168c-2.296 0-3.08-.616-1.876-2.464l-.42-.28c-3.472 2.716-1.26 5.068 2.548 5.068 1.036 0 2.1-.056 3.136-.14.028 1.148.084 2.24.112 3.22-.448-.028-.896-.056-1.372-.056-3.752 0-6.608 1.456-6.608 3.808 0 2.464 2.212 3.78 5.432 3.78 3.304 0 5.292-1.484 5.292-3.752 0-.364 0-.7-.028-1.064 1.708.728 3.164 1.792 4.536 3.052.672.56.98.868 1.68.868s1.232-.476 1.232-1.4c0-.952-.616-1.708-1.54-2.38-.896-.672-2.968-1.932-6.132-2.548a55.23 55.23 0 01-.364-3.752c2.688-.308 4.928-.812 5.796-1.176.644-.252 1.148-.644 1.148-1.4 0-.924-1.092-1.232-2.24-1.232-.196 0-.616.28-1.82.644a27.73 27.73 0 01-2.912.7c.028-1.036.056-2.072.14-2.996 2.828-.392 5.04-.98 6.048-1.344.84-.28 1.344-.56 1.344-1.372 0-1.064-1.596-1.372-2.38-1.372-.224 0-.644.28-1.792.672-.644.196-1.68.476-2.94.728.056-.448.14-.84.224-1.12.196-.7.588-1.036.588-1.596 0-1.064-1.904-1.904-3.696-1.904-1.036 0-1.876.392-2.52.812l.028.392zm2.716 59.908c-2.156 0-3.444-.672-3.444-1.736 0-.868.7-1.4 1.764-1.4 1.54 0 2.66 1.204 2.996 3.08-.42.028-.84.056-1.316.056zm-6.3-19.964c-.168.7-.252 1.176-.224 1.82.084.98 1.344 2.884 2.996 2.884.588 0 1.064-.42 1.596-.756 1.064-.616 2.8-1.568 3.836-1.736.448-.084.728.112.252.728-1.456 1.988-7.336 7.532-10.08 10.22-.924.896-1.372 1.512-1.428 2.268-.056 1.064.56 1.792 1.176 1.82.7.028.98-.224 1.652-1.092 2.38-3.08 5.068-5.88 8.904-5.88 3.22 0 4.872 1.904 4.844 4.368-.028 1.932-.98 3.724-3.304 4.676-.672-2.744-2.968-3.808-4.872-3.808-2.072 0-3.752 1.204-3.752 3.052 0 2.436 2.436 3.864 5.712 3.864 5.768 0 9.1-3.024 9.128-6.776.028-4.2-3.136-6.552-6.916-6.552-2.156 0-3.752.644-4.676.952-.28.084-.448-.112-.14-.42 1.064-1.12 4.508-4.088 6.356-5.292.924-.644 1.904-.868 1.904-1.652 0-1.204-2.212-2.968-3.528-2.968-.588 0-.588.42-1.68.784-1.512.476-4.452 1.176-5.46 1.176-.728 0-1.428-.812-1.904-1.708l-.392.028z" fill="#4D4D4D"/></svg>
