<svg width="19" height="16" viewBox="0 0 19 16" fill="none" xmlns="http://www.w3.org/2000/svg"><path d="M9.605 2.923c3.201.032 5.207-.172 5.477 3.458h3.904C18.986.758 14.192 0 9.503 0 4.813 0 .019.758.019 6.38h3.874c.3-3.698 2.537-3.489 5.712-3.457zM1.955 8.188c.951 0 1.742.058 1.918-.898.024-.13.038-.278.038-.448H0c0 1.423.875 1.346 1.955 1.346zM15.107 6.842h-.036c0 .171.014.32.041.448.186.882.976.827 1.923.827C18.12 8.117 19 8.19 19 6.842h-3.893z" fill="#fff"/><path d="M13.2 5.873v-.566c0-.253-.285-.269-.636-.269h-.575c-.352 0-.637.016-.637.27v.864H7.287v-.865c0-.253-.285-.269-.636-.269h-.575c-.352 0-.636.016-.636.27V6.365c-.927.985-3.957 5.175-4.067 5.682l.001 3.385c0 .313.25.567.555.567H16.71a.561.561 0 00.554-.567v-3.402c-.109-.492-3.138-4.68-4.065-5.665v-.493zm-6.113 6.63a.545.545 0 01-.539-.55c0-.305.242-.552.539-.552.298 0 .539.247.539.551a.545.545 0 01-.539.552zm0-1.89a.545.545 0 01-.539-.55c0-.305.242-.552.539-.552.298 0 .539.247.539.551a.545.545 0 01-.539.552zm0-1.89a.545.545 0 01-.539-.55c0-.305.242-.551.539-.551.298 0 .539.246.539.55a.545.545 0 01-.539.552zm2.217 3.78a.545.545 0 01-.538-.55c0-.305.24-.552.538-.552.298 0 .54.247.54.551 0 .305-.242.552-.54.552zm0-1.89a.545.545 0 01-.538-.55c0-.305.24-.552.538-.552.298 0 .54.247.54.551 0 .305-.242.552-.54.552zm0-1.89a.545.545 0 01-.538-.55c0-.305.24-.551.538-.551.298 0 .54.246.54.55 0 .305-.242.552-.54.552zm2.218 3.78a.545.545 0 01-.54-.55c0-.305.242-.552.54-.552.297 0 .538.247.538.551a.545.545 0 01-.538.552zm0-1.89a.545.545 0 01-.54-.55c0-.305.242-.552.54-.552.297 0 .538.247.538.551a.545.545 0 01-.538.552zm0-1.89a.545.545 0 01-.54-.55c0-.305.242-.551.54-.551.297 0 .538.246.538.55a.545.545 0 01-.538.552z" fill="#fff"/></svg>
