<svg width="248" height="313" viewBox="0 0 248 313" fill="none" xmlns="http://www.w3.org/2000/svg"><path fill-rule="evenodd" clip-rule="evenodd" d="M154.584 25.279h-.198l.002.012.196-.012zm-.23 0h.016c-24.622 1.553-35.241 7.168-35.241 7.168h.005l-.005.003c2.236.122 4.348.404 6.339.833 5.493 1.185 10.061 3.486 13.767 6.623 7.849 6.648 11.828 17.054 12.506 28.573-.161.588-.322 1.222-.485 1.866-.252.992-.509 2.006-.779 2.903-5.329 17.107-28.584 40.051-52.946 61.704-1.321.073-2.65.137-3.98.2h-.006c-3.646.174-7.315.349-10.929.741-2.808.304-5.582.74-8.285 1.409l-7.859-11.869.006-.002a779.77 779.77 0 01-6.483-10.82c-6.746-11.408-11.451-19.364-20.588-28.835-1.79-1.848-3.846-3.141-5.902-3.733 0 0 14.012-1.737 19.152-12.787-3.808 5.433-15.84 11.79-24.253 6.948C19.95 71.4 13.82 80.16 13.82 80.16c9.519-2.661 8.757.37 8.757.37s-4.988 2.623-8.49 6.319c-1.035 1.094-1.744 2.352-2.421 3.554-.994 1.764-1.921 3.409-3.71 4.244C.8 97.972 0 106.102 0 106.102c5.597-5.247 13.25-7.206 19.989-4.287 4.76 2.033 7.006 5.027 6.625 15.448-.533 13.009-2.323 35.036-2.323 35.036l.054.043c-1.975 17.319 4.779 49.047 11.11 58.846a63.51 63.51 0 001.866 2.718c5.973 17.9 20.574 40.204 56.12 48.528l-.074-.067-.096-.087c3.78 1.361 8.382 1.232 12.973-2.912 1.609-1.452 2.356-4.365 2.425-8.375 17.237-1.219 31.656-.729 43.935 3.753-2.43-1.032-4.746-2.211-6.911-3.61a47.297 47.297 0 0016.301 6.427 53.195 53.195 0 01-1.663-.341c86.581 26.461 79.004-54.437 79.004-54.437-2.626 2.586-5.671 5.025-8.983 7.279 5.079-9.615 8.194-17.839 11.422-27.608.581-1.78 1.218-3.552 1.785-5.13 1.155-3.217 2.022-5.63 1.543-5.666-.178-.017-.546.301-1.161 1.039a28.35 28.35 0 01-.78.896c-3.095 3.365-8.187 7.155-13.031 10.237 12.457-18.735 18.544-42.056 17.811-62.796-.667-19.304-8.802-35.623-16.757-47.106-6.147-18.466-14.92-30.546-14.92-30.546l-.002.007-.005-.007c-.164.574-.272 1.353-.349 2.314-.107 1.3-.156 2.933-.215 4.846-.291 9.556-.795 26.077-9.633 42.658-.5.94-1.022 1.88-1.565 2.82-.395.672-.802 1.346-1.217 2.026v.023l-.003.004v-.03c.038-9.758-.524-15.656-2.469-24.597a67.874 67.874 0 001.4-8.744c1.833-19.91-6.819-34.053-22.876-38.395l.004.005-.017-.004.014.003c-8.643-10.57-20.027-19.66-30.65-26.313 0 0 3.884 10.274 5.673 25.279zm16.867 233.163c-.829 0-1.655-.022-2.475-.065l61.543-48.222-.037.073-.054.096h-.001a4.294 4.294 0 01-.152.259c-13.288 25.796-33.048 47.859-58.824 47.859zm-72.508-89.614l-.27-.07.01-.011h.002l.004-.003.264.073-.01.011zm90.341-66.482c2.391-4.16 4.387-8.107 6.049-11.928-1.702 3.87-3.714 7.852-6.049 11.928zm-18.121-77.357a41.408 41.408 0 00-2.567-.08c-3.896-.034-8.448.054-12.411.29 3.81-.205 7.94-.312 12.404-.288.873.003 1.731.03 2.574.078z" fill="#fff"/><path d="M74.37 253.084c-9.588-8.729-30.794-29.327-38.915-41.896-7.013-10.853-14.543-48.609-10.158-63.892.908-3.161 1.228-6.172 1.688-8.49l15.238-28.867 21.86 11.887 13.492 20.376c11.28 31.422 39.498 107.39 28.669 117.166-10.828 9.776-21.723-2.793-21.723-4.539l-10.151-1.745z" fill="#fff"/><path fill-rule="evenodd" clip-rule="evenodd" d="M145.675 251.124c-7.044-3.991-13.745-11.679-19.647-17.924-5.901 5.469-22.73 10.2-31.716 7.872-8.985-2.329-7.614.332-11.536-2.107.761 6.504 4.379 13.97 17.248 12.75 21.131-1.995 38.302-2.18 52.58 3.031-2.436-1.035-4.759-2.218-6.929-3.622zM202.818 98.82zm-38.607 36.292c-8.072 7.798-16.41 13.49-25.434 17.851-9.328 4.545-18.542 6.356-30.764 10.865-4.34 1.589-7.462 3.363-9.556 4.915l.266.074c-1.142 1.294-1.865 2.587-2.246 3.437-5.293-2.439-10.699-3.954-15.877-3.732-10.356.406-24.025 8.352-24.025 28.013 0 1.589.114 3.178.343 4.693-4.836-6.467-9.71-15.337-8.567-23.689l-.343.333c-1.409 5.58-1.104 11.9-.876 17.443.572 11.937 3.656 21.251 15.611 21.509h1.409a6.492 6.492 0 01-.495-.554c-.152-.148-.267-.296-.419-.481.267.074.533.185.838.259a37.41 37.41 0 002.208.628c.038-.037.038-.037.076-.037 4.988-.554 7.348-2.365 9.138-4.656 1.104-1.404 1.98-2.994 3.084-4.546l1.028-1.33c.114-.111.228-.259.343-.37 1.637-1.848 3.883-3.511 7.576-4.767 1.333-.629 2.932-1.22 4.798-1.7 2.741-.702 6.054-1.183 10.089-1.183 1.409-.074 2.818.037 4.189.111 4.721.333 7.919-1.774 11.765-3.917.609-.407 1.256-.85 1.903-1.257 1.066-.85 2.132-1.663 3.16-2.476l.305.259c1.142-.703 2.323-1.405 3.503-2.107 8.985-5.174 18.885-9.609 28.365-14.561 1.714-.924 3.465-1.848 5.14-2.809 9.824-5.543 18.847-11.937 25.434-20.696.419-.554.838-1.108 1.218-1.663 11.461-16.002 15.877-32.448 15.877-50.926.038-9.83-.533-15.744-2.513-24.798-.076.406-.342.96-.418 1.367-2.323 10.163-6.587 20.326-14.088 32.411-7.31 11.679-14.544 20.807-22.045 28.087z" fill="#F0F0F1"/>
	<path fill-rule="evenodd" clip-rule="evenodd" d="M215.502 55.844s31.106 26.646 32.439 65.192c1.637 46.307-30.726 105.475-92.064 97.751-112.395-14.081-93.13-1.959-93.13-1.959l44.89-26.646s14.049 3.548 34.229-7.576c20.217-11.124 86.01-46.714 73.636-126.762z" fill="#F0F0F1"/>
	<path fill-rule="evenodd" clip-rule="evenodd" d="M104.135 169.888c19.228 2.069 38.379-9.72 57.569-26.092 17.095-14.561 34.761-32.559 44.356-50.594 11.917-22.359 8.681-44.607 10.204-49.818 0 0 11.461 15.78 17.362 38.842 7.386 28.789 7.196 67.89-22.35 90.138-2.703 1.996-14.239 9.276-25.053 11.789-21.169 4.952-48.087 6.431-53.57 6.172-13.44-.037-16.905 8.5-26.043 7.872-1.371-.074-2.779-.185-4.188-.111-6.74.037-11.537 1.33-14.887 2.883-12.907 4.36-8.262 14.302-21.246 15.706-14.925 1.589-18.542-8.352-19.151-21.361-.457-10.163-.99-22.913 8.833-29.011 15.877-9.831 35.866 2.254 48.164 3.585z" fill="#70BF44"/>
	<path fill-rule="evenodd" clip-rule="evenodd" d="M116.02 133.376c23.149-8.869 41.348-38.287 35.751-65.007-.418 1.515-.837 3.363-1.294 4.879-5.331 17.11-28.594 40.061-52.962 61.718.724 1.921 12.793.591 18.505-1.59zM154.354 25.279h.381c4.226-.296 9.328-.407 13.631-.37 4.264 0 7.957.665 10.965 1.404-8.643-10.57-20.027-19.66-30.65-26.313 0 0 3.884 10.274 5.673 25.279z" fill="#F0F0F1"/><path fill-rule="evenodd" clip-rule="evenodd" d="M108.011 163.832c12.222-4.509 21.436-6.32 30.764-10.866 9.024-4.36 17.362-10.052 25.434-17.85 7.501-7.28 14.735-16.409 22.045-28.087 28.937-46.455 16.715-81.97-17.895-82.118-34.647-.185-49.23 7.539-49.23 7.539 49.421 2.698 38.227 83.596-2.817 99.303-18.162 6.948-42.948-1.774-59.054 15.116-11.993 12.639-10.699 25.352-9.252 31.006 1.18-4.656 3.503-8.795 7.958-11.567 13.63-8.426 30.23-.776 42.49 2.439 2.095-1.552 5.217-3.326 9.557-4.915z" fill="#FFD335"/><path fill-rule="evenodd" clip-rule="evenodd" d="M96.138 206.922c18.961 0 34.305 8.093 34.305 18.035 0 .813-.952 2.328-1.142 3.141-2.285 8.796-15.763 14.857-33.163 14.857-18.923 0-30.878-22.322-30.878-32.264 0-9.978 11.955-3.769 30.878-3.769z" fill="#E4E4E5"/><path fill-rule="evenodd" clip-rule="evenodd" d="M88.409 206.741c14.163 0 25.662 7.17 25.662 16.002 0 8.833-11.499 16.003-25.662 16.003-14.202 0-23.15-19.846-23.15-28.679 0-8.87 8.948-3.326 23.15-3.326z" fill="#DADADC"/><path fill-rule="evenodd" clip-rule="evenodd" d="M215.495 55.839s7.768 6.652 15.687 18.109c-6.168-18.479-14.925-30.564-14.925-30.564-.571 1.996-.457 6.468-.762 12.455z" fill="#57BA46"/><path fill-rule="evenodd" clip-rule="evenodd" d="M141.903 182.606c20.217-11.124 85.971-46.751 73.597-126.762-.495 9.756-2.056 23.541-9.442 37.363-.838 1.626-1.79 3.215-2.78 4.842-.076 6.208-.723 12.38-2.018 18.367-5.787 27.016-29.85 49.485-59.357 66.19z" fill="#57BA46"/><path fill-rule="evenodd" clip-rule="evenodd" d="M129.451 195.132c10.319 7.318 23.416 11.678 37.694 11.678 7.691 0 15.077-1.293 21.855-3.621 1.142-.37 2.284-.813 3.388-1.257a289.24 289.24 0 0019.723-8.426c12.031-5.691 25.51-13.231 31.83-20.807 3.046-3.659.038 2.994-2.17 9.757-11.575 35.257-35.638 75.983-70.552 75.983-9.442 0-18.238-2.698-25.548-7.317-12.108-6.874-23.111-22.766-31.107-27.977-1.218-.813-2.436-1.589-3.731-2.254-6.092-3.4-10.89-4.693-14.506-4.989-13.212-2.698-12.412 11.752-24.634 6.393-8.834-3.917-15.116-13.969-15.116-25.759 0-19.661 13.669-27.606 24.025-28.013 17.933-.776 38.227 19.107 48.849 26.609z" fill="#F1687F"/><path fill-rule="evenodd" clip-rule="evenodd" d="M155.878 218.785c38.608 17.517 74.436-8.648 74.436-8.648 5.101-9.646 8.224-17.887 11.46-27.681 2.208-6.763 5.216-13.415 2.17-9.757-2.97 3.585-8.567 7.798-13.859 11.161 0 0-19.113 38.547-74.207 34.925z" fill="#F05D73"/><path fill-rule="evenodd" clip-rule="evenodd" d="M60.456 163.162c13.517-8.093 25.168-18.441 37.047-28.198-14.202.776-29.241.37-40.245 11.9-11.993 12.639-10.699 25.353-9.252 31.007 1.18-4.657 3.503-8.796 7.958-11.568.19-.11.342-.221.533-.295 1.142-.998 2.475-1.922 3.96-2.846zM179.33 26.31c10.204 13.23 17.781 29.824 21.474 47.12 5.521-24.466-3.16-42.168-21.474-47.12zM151.759 68.37c4.645-15.781 4.341-31.118 2.627-43.093-24.634 1.553-35.257 7.17-35.257 7.17 21.436 1.183 31.45 17.037 32.63 35.922z" fill="#FCCC1F"/><path fill-rule="evenodd" clip-rule="evenodd" d="M13.821 80.159s6.13-8.76 14.583-3.955c8.414 4.842 20.445-1.515 24.253-6.948-5.14 11.05-19.152 12.787-19.152 12.787 2.056.592 4.112 1.885 5.902 3.733 11.765 12.196 16.182 21.879 27.07 39.655 0 0-14.772 4.213-22.425 6.652-7.691 2.402-6.968 12.233-10.547 18.553-3.579 6.356-9.214 1.663-9.214 1.663s1.79-22.027 2.323-35.036c.38-10.421-1.866-13.415-6.625-15.448-6.74-2.92-14.392-.96-19.989 4.287 0 0 .8-8.13 7.958-11.456 3.007-1.405 3.579-5.1 6.13-7.798 3.502-3.696 8.49-6.32 8.49-6.32s.762-3.03-8.757-.37z" fill="#A8A9AD"/><path fill-rule="evenodd" clip-rule="evenodd" d="M126.028 233.822s14.507-18.331 23.454-15.633c-11.955-6.098-26.69-6.652-38.227-5.691-11.041.887-19.15 3.104-19.15 3.104 1.255-.111 2.626-.037 4.225.296 3.617.295 8.415 1.589 14.507 4.989.647.332 1.256.702 1.903 1.072.61.369 1.219.776 1.828 1.182 2.97 1.959 7.729 6.763 11.46 10.681z" fill="#F16E89"/><path fill-rule="evenodd" clip-rule="evenodd" d="M93.441 262.434c-13.668-12.233-14.544-33.52-14.544-33.52s-8.795 12.158-20.827 2.513c-4.416-3.548-9.633-10.607-13.554-17.666-6.816-12.159-11.27-24.983-11.27-24.983s-2.932 58.873 60.195 73.656z" fill="#A8A9AD"/><path fill-rule="evenodd" clip-rule="evenodd" d="M160.331 257.222c86.581 26.461 79.004-54.437 79.004-54.437-2.627 2.587-5.673 5.026-8.985 7.28-.076.111-.229.407-.305.518-13.288 25.796-33.048 47.859-58.825 47.859-3.731 0-7.386-.444-10.889-1.22z" fill="#F0F0F1"/><path fill-rule="evenodd" clip-rule="evenodd" d="M71.703 222.294c10.737 4.73 11.422-5.877 20.408-6.69 0 0 10.432-2.402 21.436-3.289.609-14.08 12.488-19.735 12.488-19.735-.837-.628-1.675-1.33-2.589-2.032-3.046 2.402-6.434 4.952-10.09 7.797-14.62 11.272-27.565 19.366-38.264 19.366-4.036 0-8.034-.665-11.841-1.922 2.36 2.846 5.254 5.063 8.452 6.505z" fill="#F16E89"/><path fill-rule="evenodd" clip-rule="evenodd" d="M98.454 168.746c-5.787-1.515-14.544-5.063-23.302-6.135-10.927-1.33-23.492 2.144-26.69 13.711-2.513 9.129 3.122 17.814 8.453 24.909v.111a33.199 33.199 0 01-.343-4.804c0-19.661 13.669-27.607 24.025-28.014 5.178-.221 10.585 1.294 15.877 3.733.266-.924.838-2.217 1.98-3.511z" fill="#B5D334"/><path fill-rule="evenodd" clip-rule="evenodd" d="M112.394 182.012c-9.062-6.985-15.915-9.756-15.915-9.756-5.292-2.477-10.699-3.955-15.877-3.733-10.356.406-24.025 8.352-24.025 28.013 0 1.515.114 3.031.305 4.509 0 .074.038.111.038.185.685 4.878 2.475 9.276 5.064 12.935.38.554.8 1.108 1.256 1.626.267.074.533.185.838.258.19.074.419.148.609.185l1.6.444h.113c2.818.702 5.712 1.035 8.681 1.035 5.254 0 11.042-1.922 17.324-5.248a98.299 98.299 0 007.044-4.176c.571-.37 1.18-.777 1.751-1.146 2.589-1.737 5.216-3.622 7.92-5.618.114-.074.19-.147.266-.184a227.48 227.48 0 003.96-2.994c3.998-3.104 6.511-5.359 11.27-6.874-.267-.222-.571-.443-.876-.665-.076-.074-.19-.185-.304-.259-.305-.222-.61-.48-.914-.702-3.046-2.439-6.473-5.174-10.128-7.835z" fill="#F68846"/><path fill-rule="evenodd" clip-rule="evenodd" d="M42.154 290.074H27v21.879h15.458v-4.805H32.254v-3.4h7.387v-4.804h-7.387v-4.065h9.9v-4.805zM53.379 290.074h-6.092l7.082 10.94-7.158 10.939h6.13l4.759-7.761 4.76 7.761h6.13l-7.12-10.939 7.005-10.94H62.82l-4.721 7.835-4.721-7.835zM92.017 292.624c-2.055-1.921-4.683-2.882-7.957-2.882-3.084 0-5.711 1.109-7.92 3.289-2.17 2.18-3.274 4.841-3.274 7.909 0 2.993 1.066 5.617 3.198 7.835 2.209 2.254 4.836 3.363 7.996 3.363 1.675 0 3.16-.148 4.417-.444 1.256-.332 2.55-.998 3.845-2.069l-1.98-4.139c-.38.369-.914.739-1.523.997-1.485.703-3.084.924-4.76.776-1.674-.11-3.083-.776-4.225-1.958-1.142-1.183-1.714-2.661-1.714-4.361 0-1.7.61-3.142 1.752-4.324 1.104-1.183 2.513-1.848 4.188-1.959 1.942-.111 3.465.185 4.683.887.61.37 1.066.739 1.333 1.109l1.942-4.029zM113.426 290.074H98.31v21.879h15.421v-4.805h-10.204v-3.4h7.386v-4.804h-7.386v-4.065h9.899v-4.805zM120.622 290.074v21.879h14.621v-4.879h-9.442v-17h-5.179zM147.805 289.742c-1.942 0-3.694.628-5.217 1.848-1.485 1.219-2.246 2.735-2.246 4.619-.076 3.77 3.807 5.618 6.739 6.763 2.094.813 3.731 1.663 3.731 2.661 0 1.146-.913 1.737-2.741 1.737-1.942 0-4.34-.998-6.206-3.104l-2.132 4.324c2.589 2.365 5.368 3.548 8.262 3.548 2.132 0 3.998-.592 5.559-1.848 1.599-1.22 2.437-2.883 2.475-4.952.19-3.068-2.437-4.916-5.102-6.135-2.627-1.331-5.331-1.959-5.331-3.105 0-1.108 1.104-1.478 2.17-1.478 1.638 0 3.465.813 5.483 2.402l2.132-4.434c-2.741-1.885-5.254-2.846-7.576-2.846zM162.269 290.074v21.879h5.216v-21.879h-5.216zM193.046 293.142c-2.246-2.254-4.911-3.4-7.919-3.4-3.16 0-5.825 1.109-8.034 3.326-2.17 2.18-3.312 4.841-3.312 7.909 0 2.993 1.142 5.617 3.388 7.872 2.285 2.217 4.912 3.289 7.958 3.289 3.122 0 5.749-1.072 7.996-3.326 2.246-2.218 3.35-4.842 3.35-7.835 0-2.994-1.142-5.618-3.427-7.835zm-3.541 3.474c1.181 1.219 1.79 2.698 1.79 4.361 0 1.7-.609 3.141-1.79 4.398-1.218 1.256-2.665 1.884-4.378 1.884-1.675 0-3.16-.628-4.379-1.884-1.218-1.257-1.827-2.698-1.827-4.398 0-1.663.609-3.142 1.827-4.361 1.219-1.257 2.704-1.885 4.379-1.885 1.713 0 3.16.628 4.378 1.885zM217.1 292.07c-1.523-1.33-3.426-1.996-5.787-1.996h-8.567v21.879h5.178v-6.985h1.714l4.835 6.985h6.282l-5.444-7.835c2.665-1.257 4.036-3.696 4.036-6.578 0-2.366-.762-4.177-2.247-5.47zm-6.13 2.55c2.056 0 3.084 1.035 3.084 3.03 0 1.811-1.104 2.92-3.426 2.92h-2.704v-5.95h3.046z" fill="#D19C00"/></svg>
