<svg width="58" height="73" viewBox="0 0 58 73" fill="none" xmlns="http://www.w3.org/2000/svg"><path d="M17.393 59.189c-2.242-2.041-7.202-6.859-9.101-9.798-1.64-2.538-3.401-11.368-2.376-14.943.213-.739.287-1.443.395-1.985l3.564-6.751 5.112 2.78 3.156 4.765c2.638 7.349 9.237 25.115 6.704 27.402-2.532 2.286-5.08-.653-5.08-1.062l-2.374-.408z" fill="#fff"/><path fill-rule="evenodd" clip-rule="evenodd" d="M34.07 58.73c-1.648-.933-3.215-2.73-4.596-4.191-1.38 1.279-5.316 2.385-7.417 1.84-2.101-.544-1.78.078-2.698-.492.178 1.521 1.024 3.267 4.034 2.982 4.942-.467 8.957-.51 12.297.709a10.591 10.591 0 01-1.62-.848zM47.433 23.111zM38.404 31.6c-1.888 1.824-3.838 3.155-5.948 4.175-2.182 1.063-4.336 1.486-7.195 2.54-1.015.372-1.745.787-2.235 1.15l.063.018a3.277 3.277 0 00-.526.803c-1.238-.57-2.502-.924-3.713-.873-2.422.096-5.619 1.954-5.619 6.552 0 .372.027.743.08 1.098-1.13-1.513-2.27-3.587-2.003-5.54l-.08.077c-.33 1.305-.258 2.783-.205 4.08.133 2.791.855 4.97 3.65 5.03h.33c-.044-.043-.08-.086-.116-.13-.035-.034-.062-.069-.097-.112.062.017.124.043.195.06.17.052.339.104.517.147.009-.008.009-.008.018-.008 1.166-.13 1.718-.553 2.137-1.09.258-.328.463-.7.721-1.062l.24-.312c.027-.025.054-.06.08-.086.383-.432.909-.821 1.773-1.115a6.357 6.357 0 011.122-.398 9.45 9.45 0 012.36-.276c.329-.017.658.009.979.026 1.104.078 1.852-.415 2.751-.916.143-.095.294-.2.445-.294.25-.199.5-.39.74-.58l.07.061c.268-.164.544-.328.82-.492 2.101-1.21 4.417-2.248 6.634-3.406.4-.216.81-.432 1.202-.657 2.297-1.296 4.408-2.791 5.948-4.84.098-.13.196-.26.285-.389 2.68-3.742 3.713-7.589 3.713-11.91.01-2.3-.124-3.682-.587-5.8-.018.095-.08.225-.098.32-.544 2.377-1.54 4.754-3.295 7.58-1.71 2.731-3.402 4.866-5.156 6.569z" fill="#F0F0F1"/><path fill-rule="evenodd" clip-rule="evenodd" d="M50.4 13.06s7.275 6.232 7.586 15.247c.383 10.83-7.186 24.667-21.53 22.861-26.287-3.293-21.781-.458-21.781-.458l10.498-6.232s3.286.83 8.005-1.772C37.907 40.105 53.294 31.781 50.4 13.06z" fill="#F0F0F1"/><path fill-rule="evenodd" clip-rule="evenodd" d="M24.354 39.732c4.497.484 8.976-2.273 13.464-6.102 3.998-3.406 8.13-7.615 10.373-11.833 2.788-5.229 2.03-10.432 2.387-11.65 0 0 2.68 3.69 4.06 9.083 1.728 6.733 1.683 15.878-5.227 21.08-.632.468-3.33 2.17-5.859 2.758-4.95 1.158-11.246 1.504-12.528 1.443-3.144-.008-3.954 1.988-6.091 1.841-.32-.017-.65-.043-.98-.025-1.576.008-2.697.31-3.481.674-3.019 1.02-1.932 3.345-4.969 3.673-3.49.372-4.336-1.953-4.479-4.996-.107-2.377-.231-5.358 2.066-6.785 3.713-2.299 8.388.528 11.264.839z" fill="#70BF44"/><path fill-rule="evenodd" clip-rule="evenodd" d="M27.134 31.193c5.414-2.075 9.67-8.955 8.36-15.204-.097.355-.195.787-.302 1.141-1.246 4.002-6.687 9.37-12.386 14.434.17.45 2.992.139 4.328-.371zM36.099 5.912h.089c.988-.07 2.182-.095 3.188-.087.997 0 1.86.156 2.564.329C39.92 3.682 37.257 1.556 34.772 0c0 0 .909 2.403 1.327 5.912z" fill="#F0F0F1"/><path fill-rule="evenodd" clip-rule="evenodd" d="M25.26 38.316c2.86-1.055 5.014-1.478 7.195-2.541 2.11-1.02 4.061-2.352 5.949-4.175 1.754-1.703 3.446-3.838 5.155-6.569 6.768-10.864 3.91-19.17-4.185-19.205-8.103-.043-11.513 1.763-11.513 1.763 11.558.631 8.94 19.551-.66 23.224-4.247 1.625-10.043-.415-13.81 3.535-2.805 2.956-2.502 5.93-2.164 7.252.276-1.09.82-2.057 1.861-2.705 3.188-1.971 7.07-.182 9.938.57.49-.363 1.22-.778 2.235-1.15z" fill="#FFD335"/><path fill-rule="evenodd" clip-rule="evenodd" d="M22.484 48.393c4.434 0 8.023 1.893 8.023 4.218 0 .19-.223.544-.267.734-.535 2.058-3.687 3.475-7.756 3.475-4.426 0-7.222-5.22-7.222-7.545 0-2.334 2.796-.882 7.222-.882z" fill="#E4E4E5"/><path fill-rule="evenodd" clip-rule="evenodd" d="M20.676 48.35c3.313 0 6.002 1.677 6.002 3.743s-2.69 3.743-6.002 3.743c-3.321 0-5.414-4.642-5.414-6.707 0-2.075 2.093-.778 5.414-.778z" fill="#DADADC"/><path fill-rule="evenodd" clip-rule="evenodd" d="M50.398 13.059s1.817 1.556 3.669 4.235c-1.443-4.321-3.49-7.148-3.49-7.148-.134.467-.108 1.513-.179 2.913z" fill="#57BA46"/><path fill-rule="evenodd" clip-rule="evenodd" d="M33.187 42.706c4.728-2.601 20.106-10.933 17.212-29.646-.116 2.282-.48 5.506-2.208 8.739-.196.38-.419.752-.65 1.132a21.597 21.597 0 01-.472 4.295c-1.354 6.319-6.981 11.574-13.882 15.48z" fill="#57BA46"/><path fill-rule="evenodd" clip-rule="evenodd" d="M30.275 45.636c2.413 1.711 5.476 2.73 8.815 2.73a15.742 15.742 0 005.904-1.14 67.584 67.584 0 004.613-1.97c2.813-1.332 5.966-3.095 7.444-4.867.712-.855.009.7-.508 2.282-2.707 8.246-8.334 17.77-16.5 17.77-2.208 0-4.265-.63-5.975-1.71-2.831-1.608-5.405-5.325-7.275-6.544a8.964 8.964 0 00-.872-.527c-1.425-.795-2.547-1.098-3.393-1.167-3.09-.63-2.903 2.749-5.761 1.495-2.066-.916-3.535-3.267-3.535-6.024 0-4.598 3.197-6.456 5.619-6.551 4.194-.182 8.94 4.468 11.424 6.223z" fill="#F1687F"/><path fill-rule="evenodd" clip-rule="evenodd" d="M36.455 51.167c9.03 4.097 17.409-2.022 17.409-2.022 1.193-2.256 1.923-4.183 2.68-6.474.516-1.581 1.22-3.137.508-2.282-.695.839-2.004 1.824-3.242 2.61 0 0-4.47 9.015-17.355 8.168z" fill="#F05D73"/><path fill-rule="evenodd" clip-rule="evenodd" d="M14.139 38.159c3.161-1.893 5.886-4.313 8.664-6.595-3.321.182-6.839.087-9.412 2.783-2.805 2.956-2.502 5.93-2.164 7.252.276-1.09.82-2.057 1.861-2.705.045-.026.08-.052.125-.07.267-.233.579-.449.926-.665zM41.94 6.153c2.386 3.094 4.158 6.975 5.022 11.02 1.291-5.722-.739-9.862-5.022-11.02zM35.492 15.99c1.086-3.691 1.015-7.278.614-10.078-5.76.363-8.245 1.676-8.245 1.676 5.013.277 7.355 3.985 7.631 8.401z" fill="#FCCC1F"/><path fill-rule="evenodd" clip-rule="evenodd" d="M3.232 18.747s1.434-2.049 3.41-.925c1.969 1.132 4.782-.354 5.673-1.625-1.202 2.584-4.479 2.99-4.479 2.99.48.139.962.441 1.38.873 2.752 2.853 3.785 5.117 6.331 9.275 0 0-3.455.985-5.245 1.555-1.798.562-1.629 2.861-2.466 4.34-.837 1.486-2.155.388-2.155.388s.419-5.151.543-8.194c.09-2.437-.436-3.137-1.55-3.612C3.1 23.129 1.31 23.587 0 24.814c0 0 .187-1.901 1.861-2.68.704-.328.837-1.192 1.434-1.823.819-.864 1.985-1.478 1.985-1.478s.178-.709-2.048-.086z" fill="#A8A9AD"/><path fill-rule="evenodd" clip-rule="evenodd" d="M29.474 54.684s3.393-4.287 5.485-3.656c-2.796-1.426-6.242-1.556-8.94-1.331-2.582.207-4.478.726-4.478.726.293-.026.614-.009.988.07.846.068 1.968.37 3.393 1.166.15.078.293.164.445.25.142.087.285.182.427.277.695.458 1.808 1.582 2.68 2.498z" fill="#F16E89"/><path fill-rule="evenodd" clip-rule="evenodd" d="M21.853 61.376c-3.197-2.861-3.401-7.84-3.401-7.84s-2.057 2.844-4.871.588c-1.033-.83-2.253-2.48-3.17-4.131-1.594-2.844-2.636-5.843-2.636-5.843S7.09 57.918 21.853 61.376z" fill="#A8A9AD"/><path fill-rule="evenodd" clip-rule="evenodd" d="M37.497 60.157c20.249 6.188 18.477-12.731 18.477-12.731a15.127 15.127 0 01-2.102 1.702c-.018.026-.053.095-.071.121-3.108 6.033-7.73 11.193-13.758 11.193-.872 0-1.727-.104-2.546-.285z" fill="#F0F0F1"/><path fill-rule="evenodd" clip-rule="evenodd" d="M16.77 51.988c2.51 1.106 2.67-1.374 4.772-1.565 0 0 2.44-.561 5.013-.769.143-3.293 2.921-4.615 2.921-4.615-.196-.147-.392-.311-.605-.476-.713.562-1.505 1.159-2.36 1.824-3.42 2.636-6.447 4.53-8.95 4.53a8.843 8.843 0 01-2.768-.45 5.53 5.53 0 001.976 1.52z" fill="#F16E89"/><path fill-rule="evenodd" clip-rule="evenodd" d="M23.026 39.465c-1.354-.355-3.402-1.184-5.45-1.435-2.556-.311-5.494.501-6.242 3.207-.588 2.134.73 4.166 1.977 5.825v.026a7.771 7.771 0 01-.08-1.124c0-4.598 3.196-6.456 5.618-6.551 1.211-.052 2.476.302 3.713.873.063-.216.196-.519.463-.821z" fill="#B5D334"/><path fill-rule="evenodd" clip-rule="evenodd" d="M26.286 42.567c-2.12-1.633-3.722-2.282-3.722-2.282-1.238-.578-2.503-.924-3.713-.872-2.422.095-5.62 1.953-5.62 6.551 0 .355.027.709.072 1.055 0 .017.009.026.009.043.16 1.14.579 2.17 1.184 3.025.09.13.187.26.294.38.062.017.125.043.196.06a.888.888 0 00.142.044l.374.104h.027a8.363 8.363 0 002.03.242c1.23 0 2.583-.45 4.052-1.228a22.93 22.93 0 001.647-.976c.134-.087.276-.182.41-.268a50.66 50.66 0 001.852-1.314c.027-.017.044-.035.062-.043.303-.225.615-.458.926-.7.935-.726 1.523-1.254 2.636-1.608-.062-.052-.133-.104-.205-.156a.5.5 0 00-.071-.06c-.071-.052-.142-.112-.214-.164a64.51 64.51 0 00-2.368-1.833z" fill="#F68846"/><path fill-rule="evenodd" clip-rule="evenodd" d="M11.132 67.84H7.588v5.117h3.615v-1.124H8.816v-.795h1.728v-1.124H8.816v-.95h2.316V67.84zM13.757 67.84h-1.425l1.656 2.558-1.674 2.559h1.434l1.113-1.816 1.113 1.816h1.434l-1.666-2.559 1.639-2.558h-1.416l-1.104 1.832-1.104-1.832zM22.793 68.436c-.48-.45-1.095-.674-1.86-.674-.722 0-1.336.26-1.853.77a2.54 2.54 0 00-.766 1.85c0 .7.25 1.313.748 1.831.517.528 1.131.787 1.87.787.392 0 .74-.035 1.033-.104.294-.078.597-.233.9-.484l-.463-.968a1.193 1.193 0 01-.357.234 2.124 2.124 0 01-1.113.181 1.466 1.466 0 01-.988-.458 1.422 1.422 0 01-.4-1.02c0-.397.142-.735.409-1.011.258-.277.588-.432.98-.458.453-.026.81.043 1.095.207.142.087.249.173.311.26l.454-.943zM27.8 67.84h-3.535v5.117h3.606v-1.124h-2.386v-.795h1.727v-1.124h-1.727v-.95H27.8V67.84zM29.483 67.84v5.117h3.42v-1.141h-2.209V67.84h-1.21zM35.84 67.762c-.454 0-.863.147-1.22.432-.347.286-.525.64-.525 1.08-.018.882.89 1.314 1.576 1.582.49.19.873.39.873.623 0 .268-.214.406-.641.406-.454 0-1.015-.233-1.452-.726l-.498 1.011c.605.553 1.255.83 1.932.83.498 0 .935-.138 1.3-.432.374-.285.57-.674.579-1.158.044-.718-.57-1.15-1.194-1.435-.614-.311-1.246-.458-1.246-.726 0-.26.258-.346.507-.346.383 0 .81.19 1.283.562l.498-1.037c-.64-.441-1.229-.666-1.772-.666zM39.223 67.84v5.117h1.22V67.84h-1.22zM46.421 68.557c-.525-.527-1.149-.795-1.852-.795-.74 0-1.363.26-1.879.778a2.547 2.547 0 00-.775 1.85c0 .7.267 1.314.793 1.84.534.52 1.149.77 1.86.77.731 0 1.346-.25 1.87-.778.526-.518.784-1.132.784-1.832 0-.7-.267-1.314-.8-1.833zm-.828.813c.276.285.418.63.418 1.02 0 .397-.142.734-.418 1.028-.285.294-.623.441-1.024.441-.392 0-.74-.147-1.024-.44a1.422 1.422 0 01-.428-1.03c0-.388.143-.734.428-1.02.285-.293.632-.44 1.024-.44.4 0 .739.147 1.024.44zM52.047 68.307c-.357-.312-.802-.467-1.354-.467H48.69v5.117h1.21v-1.634h.401l1.131 1.634h1.47l-1.274-1.833c.623-.294.944-.864.944-1.538 0-.553-.178-.977-.525-1.28zm-1.434.596c.48 0 .721.242.721.709 0 .423-.258.683-.801.683H49.9v-1.392h.712z" fill="#D19C00"/></svg>
