<svg width="24" height="31" viewBox="0 0 24 31" fill="none" xmlns="http://www.w3.org/2000/svg"><path fill-rule="evenodd" clip-rule="evenodd" d="M14.097 24.136c-.681-.384-1.33-1.123-1.901-1.723-.571.526-2.2.98-3.07.757-.869-.224-.736.032-1.116-.203.074.625.424 1.343 1.67 1.226 2.044-.192 3.706-.21 5.088.29-.236-.099-.46-.212-.67-.347zM19.628 9.498zm-3.736 3.488a9.325 9.325 0 01-2.462 1.716c-.902.437-1.794.61-2.977 1.044-.42.153-.722.323-.925.472l.026.007c-.11.125-.18.25-.217.33-.512-.234-1.036-.38-1.537-.358-1.002.04-2.325.803-2.325 2.692 0 .153.011.306.033.451-.468-.621-.94-1.474-.829-2.276l-.033.032c-.136.536-.107 1.143-.085 1.676.056 1.148.354 2.043 1.511 2.068h.136c-.018-.018-.033-.036-.047-.054-.015-.014-.026-.028-.04-.046.025.007.05.018.08.025.07.021.14.043.214.06.004-.003.004-.003.007-.003.483-.054.711-.228.885-.448.106-.135.191-.288.298-.437l.1-.128.033-.035c.158-.178.375-.338.733-.458a2.64 2.64 0 01.464-.164c.265-.067.586-.113.977-.113.136-.008.272.003.405.01.457.032.766-.17 1.138-.376.06-.04.122-.082.185-.121.103-.082.206-.16.305-.238l.03.025c.11-.068.225-.135.339-.203.87-.497 1.828-.923 2.745-1.4.166-.088.335-.177.497-.269.951-.533 1.824-1.147 2.462-1.99.04-.052.08-.106.118-.159 1.109-1.538 1.536-3.119 1.536-4.895.004-.944-.052-1.513-.243-2.383-.007.04-.033.092-.04.131-.225.977-.638 1.954-1.364 3.115-.707 1.123-1.407 2-2.133 2.7z" fill="#F0F0F1"/><path fill-rule="evenodd" clip-rule="evenodd" d="M20.855 5.367s3.01 2.56 3.14 6.266c.158 4.45-2.974 10.137-8.91 9.395-10.877-1.354-9.013-.189-9.013-.189l4.344-2.56s1.36.34 3.313-.729c1.956-1.069 8.323-4.49 7.126-12.183z" fill="#F0F0F1"/><path fill-rule="evenodd" clip-rule="evenodd" d="M10.078 16.328c1.86.2 3.714-.934 5.57-2.507 1.655-1.4 3.365-3.13 4.293-4.863 1.154-2.149.84-4.287.988-4.788 0 0 1.109 1.517 1.68 3.733.715 2.767.696 6.525-2.163 8.663-.261.192-1.378.892-2.424 1.133-2.049.476-4.654.618-5.185.594-1.3-.004-1.636.817-2.52.756-.133-.007-.269-.018-.405-.01-.652.003-1.117.127-1.44.276-1.25.42-.8 1.375-2.057 1.51-1.444.153-1.794-.803-1.853-2.053-.044-.977-.096-2.202.855-2.788 1.536-.945 3.47.217 4.66.344z" fill="#70BF44"/><path fill-rule="evenodd" clip-rule="evenodd" d="M11.227 12.82c2.24-.853 4.002-3.68 3.46-6.249-.04.146-.08.324-.125.47-.516 1.644-2.767 3.85-5.125 5.931.07.185 1.238.057 1.79-.153zM14.937 2.43h.037c.41-.029.903-.04 1.32-.036.412 0 .77.064 1.06.135C16.519 1.513 15.417.639 14.389 0c0 0 .376.987.55 2.43z" fill="#F0F0F1"/>
	<path fill-rule="evenodd" clip-rule="evenodd" d="M10.453 15.746c1.183-.433 2.075-.607 2.978-1.044a9.322 9.322 0 002.46-1.716c.727-.7 1.427-1.577 2.134-2.7 2.8-4.464 1.618-7.878-1.732-7.892-3.353-.018-4.764.725-4.764.725 4.783.259 3.7 8.034-.272 9.544-1.758.668-4.157-.17-5.715 1.453-1.16 1.214-1.036 2.436-.896 2.98.115-.448.34-.846.77-1.112 1.32-.81 2.926-.075 4.112.234.203-.149.505-.32.925-.472z" fill="#FFD335"/>
	<path fill-rule="evenodd" clip-rule="evenodd" d="M9.304 19.887c1.835 0 3.32.778 3.32 1.734 0 .078-.093.224-.111.302-.221.845-1.525 1.428-3.21 1.428-1.83 0-2.988-2.146-2.988-3.101 0-.96 1.157-.363 2.989-.363z" fill="#E4E4E5"/>
	<path fill-rule="evenodd" clip-rule="evenodd" d="M8.556 19.87c1.37 0 2.483.689 2.483 1.538 0 .849-1.113 1.538-2.483 1.538-1.375 0-2.24-1.908-2.24-2.757 0-.852.865-.32 2.24-.32z" fill="#DADADC"/>
	<path fill-rule="evenodd" clip-rule="evenodd" d="M20.855 5.367s.752.64 1.518 1.74c-.597-1.776-1.444-2.937-1.444-2.937-.056.192-.044.622-.074 1.197zM13.733 17.55c1.956-1.069 8.32-4.493 7.122-12.183-.048.938-.199 2.263-.914 3.591a7.568 7.568 0 01-.269.465 8.82 8.82 0 01-.195 1.766c-.56 2.596-2.889 4.756-5.744 6.361z" fill="#57BA46"/>
	<path fill-rule="evenodd" clip-rule="evenodd" d="M12.528 18.754c.998.704 2.266 1.123 3.647 1.123a6.554 6.554 0 002.443-.47c.402-.152 1.124-.44 1.909-.809 1.164-.547 2.469-1.271 3.08-2 .295-.351.004.288-.21.938-1.12 3.389-3.448 7.303-6.827 7.303-.914 0-1.765-.26-2.473-.703-1.171-.661-2.236-2.188-3.01-2.69a3.682 3.682 0 00-.361-.216c-.59-.327-1.054-.451-1.404-.48-1.278-.259-1.201 1.13-2.384.615-.855-.376-1.463-1.343-1.463-2.476 0-1.89 1.323-2.653 2.325-2.692 1.736-.075 3.7 1.836 4.728 2.557z" fill="#F1687F"/>
	<path fill-rule="evenodd" clip-rule="evenodd" d="M15.085 21.028c3.736 1.683 7.203-.831 7.203-.831.494-.927.796-1.72 1.11-2.66.213-.65.504-1.29.21-.938-.288.344-.83.749-1.342 1.072 0 0-1.85 3.705-7.181 3.357z" fill="#F05D73"/>
	<path fill-rule="evenodd" clip-rule="evenodd" d="M5.851 15.682c1.308-.778 2.436-1.772 3.585-2.71-1.374.075-2.83.035-3.894 1.144-1.16 1.214-1.036 2.436-.896 2.98.115-.448.34-.846.77-1.112.019-.01.034-.021.052-.028.11-.096.24-.185.383-.274zM17.355 2.529c.987 1.272 1.72 2.867 2.078 4.529.534-2.352-.306-4.053-2.078-4.529zM14.687 6.571c.45-1.516.42-2.99.254-4.141-2.384.149-3.412.689-3.412.689 2.075.113 3.044 1.637 3.158 3.452z" fill="#FCCC1F"/>
	<path fill-rule="evenodd" clip-rule="evenodd" d="M1.338 7.704s.593-.842 1.41-.38c.815.465 1.98-.146 2.348-.668-.498 1.062-1.854 1.23-1.854 1.23.2.056.398.18.572.358 1.138 1.172 1.566 2.103 2.62 3.811 0 0-1.43.405-2.17.64-.745.23-.675 1.175-1.022 1.783-.346.61-.891.16-.891.16s.173-2.117.225-3.368c.036-1.001-.181-1.29-.642-1.484-.652-.281-1.392-.093-1.934.412 0 0 .077-.782.77-1.102.291-.135.346-.49.593-.749.34-.355.822-.607.822-.607s.074-.292-.847-.036z" fill="#A8A9AD"/>
	<path fill-rule="evenodd" clip-rule="evenodd" d="M12.196 22.473s1.404-1.761 2.27-1.502c-1.157-.586-2.583-.64-3.7-.547-1.068.085-1.853.298-1.853.298.122-.01.254-.003.41.029.35.028.813.152 1.403.48.063.031.121.067.184.102.06.036.118.075.177.114.287.188.748.65 1.11 1.026z" fill="#F16E89"/>
	<path fill-rule="evenodd" clip-rule="evenodd" d="M9.042 25.223C7.719 24.047 7.635 22 7.635 22s-.852 1.169-2.016.241c-.427-.34-.932-1.019-1.312-1.697-.66-1.169-1.09-2.401-1.09-2.401s-.284 5.658 5.825 7.079z" fill="#A8A9AD"/>
	<path fill-rule="evenodd" clip-rule="evenodd" d="M15.516 24.722c8.379 2.543 7.646-5.232 7.646-5.232a6.25 6.25 0 01-.87.7c-.007.01-.022.039-.03.05-1.285 2.479-3.198 4.599-5.692 4.599-.361 0-.715-.043-1.054-.117z" fill="#F0F0F1"/>
	<path fill-rule="evenodd" clip-rule="evenodd" d="M6.938 21.365c1.04.455 1.105-.565 1.975-.643 0 0 1.01-.23 2.075-.316.059-1.353 1.208-1.897 1.208-1.897-.081-.06-.162-.128-.25-.195-.295.23-.623.476-.977.75-1.415 1.083-2.668 1.86-3.703 1.86-.39 0-.777-.063-1.146-.184.229.274.509.487.818.625z" fill="#F16E89"/>
	<path fill-rule="evenodd" clip-rule="evenodd" d="M9.528 16.218c-.56-.145-1.407-.486-2.255-.59-1.057-.127-2.273.207-2.582 1.318-.244.878.302 1.712.818 2.394v.011a3.17 3.17 0 01-.034-.462c0-1.89 1.323-2.653 2.325-2.692.501-.021 1.025.124 1.537.359a.887.887 0 01.191-.338z" fill="#B5D334"/>
	<path fill-rule="evenodd" clip-rule="evenodd" d="M10.877 17.494c-.877-.672-1.54-.938-1.54-.938-.512-.238-1.036-.38-1.537-.359-1.002.04-2.325.803-2.325 2.693 0 .145.011.29.03.433 0 .007.003.01.003.018a2.816 2.816 0 00.612 1.4c.026.006.052.017.081.024.019.007.04.014.06.018l.154.042h.011c.273.068.553.1.84.1.509 0 1.069-.185 1.677-.505.22-.117.45-.252.681-.4l.17-.111c.25-.167.505-.348.766-.54.011-.007.018-.014.026-.018.125-.092.254-.188.383-.287.387-.299.63-.515 1.09-.661-.025-.021-.054-.043-.084-.064a.202.202 0 00-.03-.025c-.029-.021-.058-.046-.088-.067a26.775 26.775 0 00-.98-.753z" fill="#F68846"/>
	<path fill-rule="evenodd" clip-rule="evenodd" d="M4.606 27.88H3.139v2.102h1.496v-.462h-.987v-.326h.715v-.462h-.715v-.39h.958v-.463z" fill="#F1687F" stroke="#FEFEFE" stroke-width=".2"/>
	<path fill-rule="evenodd" clip-rule="evenodd" d="M5.693 27.88h-.59l.686 1.05-.693 1.052h.593l.46-.746.461.746h.594l-.69-1.051.678-1.052h-.585l-.457.753-.457-.753zM9.433 28.125c-.2-.185-.454-.278-.77-.278-.299 0-.553.107-.767.316a1.04 1.04 0 00-.317.76c0 .288.104.54.31.754.214.216.468.323.774.323.162 0 .305-.014.427-.043a.982.982 0 00.372-.199l-.191-.397a.495.495 0 01-.148.095.884.884 0 01-.46.075.608.608 0 01-.575-.607c0-.164.059-.302.17-.416a.592.592 0 01.405-.188.801.801 0 01.453.085.44.44 0 01.129.107l.188-.387z" fill="#57BA46" stroke="#FEFEFE" stroke-width=".2"/><path fill-rule="evenodd" clip-rule="evenodd" d="M11.503 27.88H10.04v2.102h1.493v-.462h-.988v-.326h.715v-.462h-.715v-.39h.958v-.463zM12.2 27.88v2.102h1.415v-.469H12.7V27.88H12.2z" fill="#FCCC1F" stroke="#FEFEFE" stroke-width=".2"/><path fill-rule="evenodd" clip-rule="evenodd" d="M14.83 27.847a.793.793 0 00-.504.178.548.548 0 00-.218.444c-.007.362.369.54.652.65.203.078.361.16.361.256 0 .11-.088.167-.265.167-.188 0-.42-.096-.6-.299l-.207.416c.25.227.52.34.8.34a.834.834 0 00.538-.177.583.583 0 00.24-.476c.018-.294-.237-.472-.494-.59-.255-.127-.516-.188-.516-.298 0-.106.107-.142.21-.142.158 0 .335.078.53.231l.207-.426c-.266-.181-.509-.274-.733-.274zM16.231 27.88v2.102h.505V27.88h-.505z" fill="#CAB5A7" stroke="#FEFEFE" stroke-width=".2"/><path fill-rule="evenodd" clip-rule="evenodd" d="M19.208 28.174a1.056 1.056 0 00-.766-.327c-.306 0-.564.107-.778.32-.21.21-.32.465-.32.76 0 .288.11.54.327.757.221.213.476.316.77.316.303 0 .557-.103.774-.32a1.02 1.02 0 00.325-.753c0-.287-.111-.54-.332-.753zm-.343.334c.115.117.173.26.173.42a.594.594 0 01-.173.422.57.57 0 01-.423.181.575.575 0 01-.424-.181.582.582 0 01-.177-.423c0-.16.059-.302.177-.419a.575.575 0 01.424-.181.57.57 0 01.423.181zM21.537 28.071a.82.82 0 00-.56-.192h-.83v2.103h.502v-.671h.165l.468.671h.608l-.527-.753a.667.667 0 00.391-.632c0-.227-.074-.402-.217-.526zm-.594.245c.2 0 .299.1.299.292 0 .174-.107.28-.332.28h-.261v-.572h.294z" fill="#F1687F" stroke="#FEFEFE" stroke-width=".2"/></svg>
