<svg width="50" height="50" viewBox="0 0 50 50" fill="none" xmlns="http://www.w3.org/2000/svg"><circle cx="25" cy="25" r="25" fill="#F00000"/><path d="M19.667 20.128h-4.32v.576l2.064.224.048 7.904-6.272-8.704H7.811v.576l1.216.144.256.336-.08 10.064-1.488.192V32h4.32v-.56l-2.048-.208-.048-9.12 7.072 9.952h1.104l.08-11.152 1.472-.208v-.576zm2.963 6.96c.096-2.336.976-3.312 1.984-3.312.976 0 1.664.832 1.664 2.128 0 .816-.176 1.184-.912 1.184H22.63zm5.536.592c.08-.272.112-.576.112-.992 0-2.016-1.328-3.504-3.52-3.504-2.24 0-4.352 1.648-4.352 4.528 0 2.912 1.824 4.544 4.336 4.544 1.584 0 2.8-.752 3.44-2.064l-.32-.224c-.56.752-1.248 1.232-2.4 1.232-1.552 0-2.768-1.072-2.832-3.52h5.536zm14.549-4.24h-3.28v.512l1.44.192-1.712 5.712-2.016-5.744 1.248-.16v-.512h-3.984v.512l1.264.144-1.952 5.856-1.856-5.872 1.296-.128v-.512h-4.384v.512l.912.112 2.88 7.984h.896l2.304-6.368c.384 1.28.96 2.88 2.256 6.368h.896l2.704-7.92 1.088-.176v-.512z" fill="#fff"/></svg>
