<svg width="177" height="14" viewBox="0 0 177 14" fill="none" xmlns="http://www.w3.org/2000/svg"><path fill-rule="evenodd" clip-rule="evenodd" d="M102.1 7.484c.585-.009 1.171-.017 1.757-.024l1.632 1.6 1.671-1.638c8.46-.086 16.928-.086 25.396-.086 14.724 0 29.448 0 44.134-.45-23.426-.717-46.852-1.435-70.356-1.24l-.845-.828-.861.844c-1.172.012-2.343.026-3.515.043l-1.736-1.703-1.797 1.76c-1.118.022-2.236.045-3.355.07L88.277 0l-6.28 6.157c-.835.02-1.669.038-2.503.055l-2.212-2.17-2.295 2.251-2.108.032-1.528-1.498-1.57 1.538c-9.23.108-18.452.119-27.674.13C28.084 6.512 14.06 6.53 0 6.886c23.49.716 46.978 1.432 70.39 1.242l.96.941.979-.959c.931-.01 1.862-.02 2.793-.033l2.16 2.117 2.232-2.188c.865-.017 1.73-.034 2.595-.053L88.277 14l6.509-6.382c.654-.015 1.308-.028 1.963-.042l2.626 2.577 2.725-2.669z" fill="#E3AA03"/></svg>
